<?xml version="1.0" encoding="UTF-8"?>
<svg width="24px" height="24px" viewBox="0 0 24 24" version="1.1" xmlns="http://www.w3.org/2000/svg" xmlns:xlink="http://www.w3.org/1999/xlink">
    <g id="gift" fill-rule="evenodd">
        <path d="M19.6631844,6 L22,6 C22.5522847,6 23,6.44771525 23,7 L23,12 C23,12.5522847 22.5522847,13 22,13 L21,13 L21,22 C21,22.5522847 20.5522847,23 20,23 L4,23 C3.44771525,23 3,22.5522847 3,22 L3,13 L2,13 C1.44771525,13 1,12.5522847 1,12 L1,7 C1,6.44771525 1.44771525,6 2,6 L4.33681558,6 C4.12084552,5.54537231 4,5.03679865 4,4.5 C4,2.56700338 5.56700338,1 7.5,1 C9.46085569,1 10.9214191,2.16845076 11.9387159,4.01808125 C11.9594128,4.05571187 11.97984,4.0934783 12,4.13137194 C12.02016,4.0934783 12.0405872,4.05571187 12.0612841,4.01808125 C13.0785809,2.16845076 14.5391443,1 16.5,1 C18.4329966,1 20,2.56700338 20,4.5 C20,5.03679865 19.8791545,5.54537231 19.6631844,6 Z M13,8 L13,11 L21,11 L21,8 L16.5,8 L13,8 Z M11,8 L7.5,8 L3,8 L3,11 L11,11 L11,8 Z M13,21 L19,21 L19,13 L13,13 L13,21 Z M11,21 L11,13 L5,13 L5,21 L11,21 Z M10.1862841,4.98191875 C9.48483086,3.70654924 8.60164431,3 7.5,3 C6.67157288,3 6,3.67157288 6,4.5 C6,5.32842712 6.67157288,6 7.5,6 L10.654257,6 C10.5205831,5.64992345 10.3647387,5.30638173 10.1862841,4.98191875 Z M16.5,6 C17.3284271,6 18,5.32842712 18,4.5 C18,3.67157288 17.3284271,3 16.5,3 C15.3983557,3 14.5151691,3.70654924 13.8137159,4.98191875 C13.6352613,5.30638173 13.4794169,5.64992345 13.3457449,6 L16.5,6 Z" id="Combined-Shape" fill="#000000" fill-rule="nonzero"></path>
    </g>
</svg>