<?xml version="1.0" encoding="UTF-8"?>
<svg width="24px" height="24px" viewBox="0 0 24 24" version="1.1" xmlns="http://www.w3.org/2000/svg" xmlns:xlink="http://www.w3.org/1999/xlink">
    <g id="git-branch" fill-rule="evenodd">
        <path d="M9.88368918,18.9614902 C9.45318362,20.7062235 7.87768065,22 6,22 C3.790861,22 2,20.209139 2,18 C2,16.1361606 3.27477279,14.5700603 5,14.1260175 L5,3 C5,2.44771525 5.44771525,2 6,2 C6.55228475,2 7,2.44771525 7,3 L7,14.1260175 C8.39027615,14.4838498 9.48802904,15.5703417 9.86187938,16.9541139 C13.5916952,16.5545851 16.5545851,13.5916952 16.9541139,9.86187938 C15.2522171,9.40208208 14,7.84727652 14,6 C14,3.790861 15.790861,2 18,2 C20.209139,2 22,3.790861 22,6 C22,7.87768065 20.7062235,9.45318362 18.9614902,9.88368918 C18.5396532,14.7014678 14.7014678,18.5396532 9.88368918,18.9614902 Z M18,8 C19.1045695,8 20,7.1045695 20,6 C20,4.8954305 19.1045695,4 18,4 C16.8954305,4 16,4.8954305 16,6 C16,7.1045695 16.8954305,8 18,8 Z M6,20 C7.1045695,20 8,19.1045695 8,18 C8,16.8954305 7.1045695,16 6,16 C4.8954305,16 4,16.8954305 4,18 C4,19.1045695 4.8954305,20 6,20 Z" id="Combined-Shape" fill="#000000" fill-rule="nonzero"></path>
    </g>
</svg>