<?xml version="1.0" encoding="UTF-8"?>
<svg width="24px" height="24px" viewBox="0 0 24 24" version="1.1" xmlns="http://www.w3.org/2000/svg" xmlns:xlink="http://www.w3.org/1999/xlink">
    <g id="git-commit" fill-rule="evenodd">
        <path d="M16.9011665,12.9941459 C16.4401609,15.2793023 14.4210257,17 12,17 C9.57933155,17 7.56043498,15.2798101 7.09903766,12.9951576 C7.06645872,12.9983605 7.03342082,13 7,13 L1.05,13 C0.49771525,13 0.05,12.5522847 0.05,12 C0.05,11.4477153 0.49771525,11 1.05,11 L7,11 C7.03342082,11 7.06645872,11.0016395 7.09903766,11.0048424 C7.56043498,8.72018994 9.57933155,7 12,7 C14.4210257,7 16.4401609,8.72069773 16.9011665,11.0058541 C16.9369132,11.0019851 16.9732248,11 17.01,11 L22.96,11 C23.5122847,11 23.96,11.4477153 23.96,12 C23.96,12.5522847 23.5122847,13 22.96,13 L17.01,13 C16.9732248,13 16.9369132,12.9980149 16.9011665,12.9941459 Z M12,15 C13.6568542,15 15,13.6568542 15,12 C15,10.3431458 13.6568542,9 12,9 C10.3431458,9 9,10.3431458 9,12 C9,13.6568542 10.3431458,15 12,15 Z" id="Combined-Shape" fill="#000000" fill-rule="nonzero"></path>
    </g>
</svg>