<?xml version="1.0" encoding="UTF-8"?>
<svg width="24px" height="24px" viewBox="0 0 24 24" version="1.1" xmlns="http://www.w3.org/2000/svg" xmlns:xlink="http://www.w3.org/1999/xlink">
    <g id="git-merge" fill-rule="evenodd">
        <path d="M14.1163108,18.9614902 C11.2089766,18.7069287 8.65837429,17.2082582 7,15.0009749 L7,21 C7,21.5522847 6.55228475,22 6,22 C5.44771525,22 5,21.5522847 5,21 L5,9.87398251 C3.27477279,9.42993972 2,7.86383943 2,6 C2,3.790861 3.790861,2 6,2 C8.209139,2 10,3.790861 10,6 C10,7.84727652 8.74778294,9.40208208 7.04588612,9.86187938 C7.44541494,13.5916952 10.4083048,16.5545851 14.1381206,16.9541139 C14.5979179,15.2522171 16.1527235,14 18,14 C20.209139,14 22,15.790861 22,18 C22,20.209139 20.209139,22 18,22 C16.1223193,22 14.5468164,20.7062235 14.1163108,18.9614902 Z M18,20 C19.1045695,20 20,19.1045695 20,18 C20,16.8954305 19.1045695,16 18,16 C16.8954305,16 16,16.8954305 16,18 C16,19.1045695 16.8954305,20 18,20 Z M6,8 C7.1045695,8 8,7.1045695 8,6 C8,4.8954305 7.1045695,4 6,4 C4.8954305,4 4,4.8954305 4,6 C4,7.1045695 4.8954305,8 6,8 Z" id="Combined-Shape" fill="#000000" fill-rule="nonzero"></path>
    </g>
</svg>