<?xml version="1.0" encoding="UTF-8"?>
<svg width="24px" height="24px" viewBox="0 0 24 24" version="1.1" xmlns="http://www.w3.org/2000/svg" xmlns:xlink="http://www.w3.org/1999/xlink">
    <g id="git-pull-request" fill-rule="evenodd">
        <path d="M5,9.87398251 C3.27477279,9.42993972 2,7.86383943 2,6 C2,3.790861 3.790861,2 6,2 C8.209139,2 10,3.790861 10,6 C10,7.86383943 8.72522721,9.42993972 7,9.87398251 L7,21 C7,21.5522847 6.55228475,22 6,22 C5.44771525,22 5,21.5522847 5,21 L5,9.87398251 Z M17,14.1260175 L17,8 C17,7.44771525 16.5522847,7 16,7 L13,7 C12.4477153,7 12,6.55228475 12,6 C12,5.44771525 12.4477153,5 13,5 L16,5 C17.6568542,5 19,6.34314575 19,8 L19,14.1260175 C20.7252272,14.5700603 22,16.1361606 22,18 C22,20.209139 20.209139,22 18,22 C15.790861,22 14,20.209139 14,18 C14,16.1361606 15.2747728,14.5700603 17,14.1260175 Z M18,20 C19.1045695,20 20,19.1045695 20,18 C20,16.8954305 19.1045695,16 18,16 C16.8954305,16 16,16.8954305 16,18 C16,19.1045695 16.8954305,20 18,20 Z M6,8 C7.1045695,8 8,7.1045695 8,6 C8,4.8954305 7.1045695,4 6,4 C4.8954305,4 4,4.8954305 4,6 C4,7.1045695 4.8954305,8 6,8 Z" id="Combined-Shape" fill="#000000" fill-rule="nonzero"></path>
    </g>
</svg>