<?xml version="1.0" encoding="UTF-8"?>
<svg width="24px" height="24px" viewBox="0 0 24 24" version="1.1" xmlns="http://www.w3.org/2000/svg" xmlns:xlink="http://www.w3.org/1999/xlink">
    <g id="rss" fill-rule="evenodd">
        <path d="M4,12 C3.44771525,12 3,11.5522847 3,11 C3,10.4477153 3.44771525,10 4,10 C9.5228475,10 14,14.4771525 14,20 C14,20.5522847 13.5522847,21 13,21 C12.4477153,21 12,20.5522847 12,20 C12,15.581722 8.418278,12 4,12 Z M4,5 C3.44771525,5 3,4.55228475 3,4 C3,3.44771525 3.44771525,3 4,3 C13.3888407,3 21,10.6111593 21,20 C21,20.5522847 20.5522847,21 20,21 C19.4477153,21 19,20.5522847 19,20 C19,11.7157288 12.2842712,5 4,5 Z M5,21 C3.8954305,21 3,20.1045695 3,19 C3,17.8954305 3.8954305,17 5,17 C6.1045695,17 7,17.8954305 7,19 C7,20.1045695 6.1045695,21 5,21 Z" id="Combined-Shape" fill="#000000" fill-rule="nonzero"></path>
    </g>
</svg>