<?xml version="1.0" encoding="UTF-8"?>
<svg width="24px" height="24px" viewBox="0 0 24 24" version="1.1" xmlns="http://www.w3.org/2000/svg" xmlns:xlink="http://www.w3.org/1999/xlink">
    <g id="terminal" fill-rule="evenodd">
        <path d="M3.29289322,5.70710678 C2.90236893,5.31658249 2.90236893,4.68341751 3.29289322,4.29289322 C3.68341751,3.90236893 4.31658249,3.90236893 4.70710678,4.29289322 L10.7071068,10.2928932 C11.0976311,10.6834175 11.0976311,11.3165825 10.7071068,11.7071068 L4.70710678,17.7071068 C4.31658249,18.0976311 3.68341751,18.0976311 3.29289322,17.7071068 C2.90236893,17.3165825 2.90236893,16.6834175 3.29289322,16.2928932 L8.58578644,11 L3.29289322,5.70710678 Z M12,20 C11.4477153,20 11,19.5522847 11,19 C11,18.4477153 11.4477153,18 12,18 L20,18 C20.5522847,18 21,18.4477153 21,19 C21,19.5522847 20.5522847,20 20,20 L12,20 Z" id="Combined-Shape" fill="#000000" fill-rule="nonzero"></path>
    </g>
</svg>