<?xml version="1.0" encoding="UTF-8"?>
<svg width="24px" height="24px" viewBox="0 0 24 24" version="1.1" xmlns="http://www.w3.org/2000/svg" xmlns:xlink="http://www.w3.org/1999/xlink">
    <g id="truck" fill-rule="evenodd">
        <path d="M21.6631844,17 C21.8791545,17.4546277 22,17.9632014 22,18.5 C22,20.4329966 20.4329966,22 18.5,22 C16.5670034,22 15,20.4329966 15,18.5 C15,17.9632014 15.1208455,17.4546277 15.3368156,17 L8.66318442,17 C8.87915448,17.4546277 9,17.9632014 9,18.5 C9,20.4329966 7.43299662,22 5.5,22 C3.56700338,22 2,20.4329966 2,18.5 C2,17.9632014 2.12084552,17.4546277 2.33681558,17 L1,17 C0.44771525,17 0,16.5522847 0,16 L0,3 C0,2.44771525 0.44771525,2 1,2 L16,2 C16.5522847,2 17,2.44771525 17,3 L17,7 L20,7 C20.2652165,7 20.5195704,7.10535684 20.7071068,7.29289322 L23.7071068,10.2928932 C23.8946432,10.4804296 24,10.7347835 24,11 L24,16 C24,16.5522847 23.5522847,17 23,17 L21.6631844,17 Z M15,8 L15,4 L2,4 L2,15 L15,15 L15,8 Z M17,9 L17,15 L22,15 L22,11.4142136 L19.5857864,9 L17,9 Z M5.5,20 C6.32842712,20 7,19.3284271 7,18.5 C7,17.6715729 6.32842712,17 5.5,17 C4.67157288,17 4,17.6715729 4,18.5 C4,19.3284271 4.67157288,20 5.5,20 Z M18.5,20 C19.3284271,20 20,19.3284271 20,18.5 C20,17.6715729 19.3284271,17 18.5,17 C17.6715729,17 17,17.6715729 17,18.5 C17,19.3284271 17.6715729,20 18.5,20 Z" id="Combined-Shape" fill="#000000" fill-rule="nonzero"></path>
    </g>
</svg>