<?xml version="1.0" encoding="UTF-8"?>
<svg width="24px" height="24px" viewBox="0 0 24 24" version="1.1" xmlns="http://www.w3.org/2000/svg" xmlns:xlink="http://www.w3.org/1999/xlink">
    <g id="zap-off" fill-rule="evenodd">
        <path d="M6.64715296,8.06136652 L0.292893219,1.70710678 C-0.0976310729,1.31658249 -0.0976310729,0.683417511 0.292893219,0.292893219 C0.683417511,-0.0976310729 1.31658249,-0.0976310729 1.70710678,0.292893219 L8.6998961,7.28568254 C8.70532122,7.29098651 8.71067427,7.29633995 8.71595511,7.30174154 L16.6998962,15.2856826 C16.7053212,15.2909865 16.7106743,15.29634 16.7159551,15.3017415 L23.7071068,22.2928932 C24.0976311,22.6834175 24.0976311,23.3165825 23.7071068,23.7071068 C23.3165825,24.0976311 22.6834175,24.0976311 22.2928932,23.7071068 L16.0671984,17.4814119 L11.7682213,22.6401844 C11.1289683,23.4072879 9.88386786,22.8667994 10.0077221,21.8759653 L10.8672178,15 L3,15 C2.15216235,15 1.68900628,14.0111425 2.23177872,13.3598156 L6.64715296,8.06136652 Z M8.06719835,9.48141191 L5.13504161,13 L11.5857864,13 L8.06719835,9.48141191 Z M12.9608938,14.3751074 L12.4153394,18.7395428 L14.647153,16.0613665 L12.9608938,14.3751074 Z M11.3386526,5.55966641 C10.9853746,5.98418154 10.3548487,6.04193064 9.93033359,5.68865264 C9.50581846,5.33537464 9.44806936,4.70484872 9.80134736,4.28033359 L12.2313474,1.36033359 C12.8700487,0.592840657 14.1154513,1.13238655 13.992374,2.1232633 L13.402374,6.8732633 C13.3342976,7.42133632 12.8348097,7.81045044 12.2867367,7.742374 C11.7386637,7.67429756 11.3495496,7.17480973 11.417626,6.6267367 L11.5872762,5.2609089 L11.3386526,5.55966641 Z M15.66,11 C15.1077153,11 14.66,10.5522847 14.66,10 C14.66,9.44771525 15.1077153,9 15.66,9 L21,9 C21.848312,9 22.3113084,9.98982164 21.7675723,10.6409624 L19.3375723,13.5509624 C18.9835785,13.9748809 18.352956,14.031566 17.9290376,13.6775723 C17.5051191,13.3235785 17.448434,12.692956 17.8024277,12.2690376 L18.8621395,11 L15.66,11 Z" id="Combined-Shape" fill="#000000" fill-rule="nonzero"></path>
    </g>
</svg>