<?xml version="1.0" standalone="no"?>
<!DOCTYPE svg PUBLIC "-//W3C//DTD SVG 1.1//EN" "http://www.w3.org/Graphics/SVG/1.1/DTD/svg11.dtd" >
<svg xmlns="http://www.w3.org/2000/svg">
<metadata>Created by iconfont</metadata>
<defs>
<font id="feather" horiz-adv-x="1024">
<font-face font-family="feather"
    font-weight="500"
    font-stretch="normal" 
    units-per-em="1024" 
    ascent="960" 
    descent="-64" 
/>
<missing-glyph horiz-adv-x="1024" />
<glyph unicode="&#x20;" horiz-adv-x="512" d="" />
<glyph unicode="&#xe900;" glyph-name="book-open" d="M72.32 872.235c-10.333-3.519-18.737-10.43-24.080-19.381l-0.112-0.203-4.608-7.851-0.427-329.131c-0.299-217.045 0.128-331.307 1.237-335.531 2.56-9.387 10.752-19.669 20.011-25.131l8.192-4.821 164.693-0.896c183.979-0.981 171.776-0.128 192.128-13.269 24.161-15.612 39.938-42.397 39.979-72.868v-0.006c0.145-23.454 19.192-42.411 42.667-42.411 23.565 0 42.667 19.103 42.667 42.667 0 0.090 0 0.18-0.001 0.27v-0.014c0.043 29.184 14.677 55.68 39.979 72.277 20.224 13.227 8.021 12.373 192.128 13.355l164.693 0.896 8.192 4.821c9.259 5.461 17.451 15.744 20.011 25.131 1.109 4.224 1.536 118.485 1.237 335.531l-0.427 329.131-4.608 7.851c-3.006 4.864-6.602 9.016-10.76 12.523l-0.077 0.063c-12.544 9.557-10.411 9.429-155.563 9.429-137.344 0-155.435-0.683-179.712-6.912-40.702-10.89-75.48-32.214-102.465-60.942l-0.106-0.114-15.189-16.043-15.147 15.957c-35.968 38.016-81.109 60.672-131.968 66.219-25.515 2.816-283.435 2.261-292.565-0.597zM378.069 784.128c41.112-13.221 72.86-44.955 85.841-85.126l0.26-0.932 4.309-13.696 0.469-235.947c0.256-129.792 0.043-235.947-0.469-235.947s-5.333 2.176-10.709 4.864c-13.912 7.104-30.073 12.314-47.129 14.751l-0.829 0.097c-13.269 1.963-41.941 2.475-149.12 2.475h-132.693v554.837l236.373-1.109 13.696-4.267zM896 512v-277.333h-132.693c-107.179 0-135.851-0.512-149.12-2.475-17.884-2.534-34.045-7.744-48.841-15.255l0.884 0.407c-2.91-1.6-6.438-3.236-10.077-4.648l-0.632-0.216c-0.512 0-0.725 106.155-0.469 235.947l0.469 235.947 4.309 13.696c14.805 46.763 54.187 81.493 101.461 89.429 4.693 0.768 59.477 1.536 121.643 1.621l113.067 0.213v-277.333z" />
<glyph unicode="&#xe901;" glyph-name="box" d="M492.416 915.541c-13.425-2.162-25.488-6.153-36.595-11.761l0.713 0.326c-4.693-2.304-77.867-43.819-162.603-92.203-96.213-54.912-157.44-90.923-163.072-95.829-21.12-18.389-31.787-34.987-40.661-63.275l-4.011-12.8v-384l4.011-12.8c10.069-32.256 29.056-57.6 55.765-74.496 18.603-11.776 297.813-170.539 310.571-176.597 12.715-6.059 27.989-11.093 47.36-15.616 5.973-1.408 10.24-1.408 16.213 0 18.019 3.918 33.84 9.295 48.802 16.214l-1.442-0.598c12.757 6.059 291.968 164.821 310.571 176.597 19.94 12.536 35.737 30.004 45.927 50.726l0.324 0.73c14.464 29.44 13.525 13.312 13.525 227.84 0 177.621-0.213 191.019-3.072 201.387-7.765 28.203-20.053 47.915-41.6 66.688-8.832 7.68-304.768 178.219-328.277 189.141-5.827 2.747-12.852 5.391-20.104 7.501l-1.059 0.264c-10.124 2.233-21.753 3.512-33.68 3.512-6.202 0-12.324-0.346-18.346-1.019l0.74 0.067zM524.117 829.653c4.139-1.28 69.931-38.059 146.219-81.707l138.709-79.36-147.157-85.12c-80.939-46.805-148.395-85.12-149.888-85.12s-68.949 38.315-149.888 85.12l-147.2 85.12 138.752 79.36c76.288 43.648 141.781 80.384 145.536 81.621 3.742 1.396 8.066 2.204 12.578 2.204 4.423 0 8.665-0.776 12.597-2.2l-0.258 0.081zM321.451 508.587l147.755-85.333 0.085-170.24c0-93.653-0.341-170.24-0.811-170.24s-63.573 35.84-140.245 79.659c-97.792 55.851-141.312 81.621-145.877 86.357-12.16 12.544-11.691 5.163-11.691 185.173 0 94.635 0.64 160.853 1.536 160.512 0.853-0.299 68.011-38.955 149.248-85.888zM853.333 433.792c0-179.84 0.469-172.459-11.691-185.003-4.565-4.736-48.085-30.507-145.877-86.357 27.953 13.026-17.882-13.398-63.864-39.594l-76.382-40.065c-0.469 0-0.811 76.587-0.811 170.24l0.085 170.24 147.968 85.632c-17.381-7.356 31.404 21.081 80.372 49.234l68.919 36.526c0.725 0.085 1.28-72.32 1.28-160.853z" />
<glyph unicode="&#xe902;" glyph-name="briefcase" d="M405.291 872.875c-48.331-8.851-86.847-43.346-101.334-88.591l-0.255-0.923c-3.243-10.197-3.925-16.896-4.608-45.525l-0.811-33.621-75.349-0.597c-74.581-0.597-75.435-0.64-89.003-4.864-41.44-13.251-73.388-45.367-86.148-85.981l-0.252-0.931-4.011-12.8v-472.747l4.011-12.8c13.117-41.864 45.432-74.179 86.363-87.043l0.933-0.253 12.8-4.011h728.747l12.8 4.011c41.864 13.117 74.179 45.432 87.043 86.363l0.253 0.933 4.011 12.8v472.747l-4.011 12.8c-13.012 41.545-44.96 73.661-85.47 86.654l-0.93 0.258c-13.568 4.224-14.421 4.267-89.003 4.864l-75.349 0.597-0.811 33.621c-0.683 28.629-1.365 35.328-4.608 45.525-13.306 41.117-45.086 72.855-85.294 85.84l-0.935 0.261-13.696 4.267-103.253 0.299c-56.789 0.171-107.136-0.341-111.829-1.152zM610.56 786.731c6.535-2.064 12.098-5.629 16.493-10.305l0.019-0.020c10.709-10.709 12.928-19.115 12.928-48.811v-23.595h-256v23.595c0 29.739 2.219 38.101 12.971 48.811 12.8 12.843 11.307 12.672 114.304 12.8 76.331 0.128 91.947-0.299 99.285-2.475zM298.667 362.581v-256.043l-140.8 0.981-7.851 4.608c-4.793 2.951-8.888 6.476-12.356 10.551l-0.060 0.073c-10.112 13.269-9.6 0.64-9.6 238.976 0 246.699-0.896 230.187 12.971 244.011 12.459 12.459 13.867 12.672 90.709 12.8l66.987 0.128v-256.085zM640 362.667v-256h-256v512h256v-256zM866.56 616.064c11.904-3.541 23.296-14.933 26.837-26.837 2.261-7.595 2.603-36.523 2.603-226.603 0-179.669-0.427-219.221-2.347-225.664-3.329-10.637-10.321-19.306-19.468-24.721l-0.202-0.111-7.851-4.608-140.8-0.981v512.128h66.261c54.315 0 67.797-0.469 74.965-2.603z" />
<glyph unicode="&#xe903;" glyph-name="align-center" d="M114.987 744.235c-10.333-3.519-18.737-10.43-24.080-19.381l-0.112-0.203c-3.883-6.656-4.608-9.813-4.608-20.651 0-10.923 0.683-13.995 4.736-20.864 5.333-9.088 13.568-16 22.997-19.371 9.515-3.413 786.645-3.413 796.16 0 9.429 3.371 17.664 10.283 22.997 19.371 4.053 6.869 4.736 9.941 4.736 20.864 0 10.837-0.725 13.995-4.608 20.651-5.526 9.348-14.195 16.34-24.524 19.586l-0.308 0.084c-11.221 3.371-782.635 3.285-793.387-0.085zM242.987 573.568c-10.333-3.519-18.737-10.43-24.080-19.381l-0.112-0.203c-3.883-6.656-4.608-9.813-4.608-20.651 0-10.923 0.683-13.995 4.736-20.864 5.333-9.088 13.568-16 22.997-19.371 5.248-1.877 54.101-2.261 270.080-2.261s264.832 0.384 270.080 2.261c9.429 3.371 17.664 10.283 22.997 19.371 4.053 6.869 4.736 9.941 4.736 20.864 0 10.837-0.725 13.995-4.608 20.651-5.526 9.348-14.195 16.34-24.524 19.586l-0.308 0.084c-11.179 3.371-526.635 3.285-537.387-0.085zM114.987 402.901c-10.333-3.519-18.737-10.43-24.080-19.381l-0.112-0.203c-3.883-6.656-4.608-9.813-4.608-20.651 0-10.923 0.683-13.995 4.736-20.864 5.333-9.088 13.568-16 22.997-19.371 9.515-3.413 786.645-3.413 796.16 0 9.429 3.371 17.664 10.283 22.997 19.371 4.053 6.869 4.736 9.941 4.736 20.864 0 10.837-0.725 13.995-4.608 20.651-5.526 9.348-14.195 16.34-24.524 19.586l-0.308 0.084c-11.221 3.371-782.635 3.285-793.387-0.085zM242.987 232.235c-10.333-3.519-18.737-10.43-24.080-19.381l-0.112-0.203c-3.883-6.656-4.608-9.813-4.608-20.651 0-10.923 0.683-13.995 4.736-20.864 5.333-9.088 13.568-16 22.997-19.371 5.248-1.877 54.101-2.261 270.080-2.261s264.832 0.384 270.080 2.261c9.429 3.371 17.664 10.283 22.997 19.371 4.053 6.869 4.736 9.941 4.736 20.864 0 10.837-0.725 13.995-4.608 20.651-5.526 9.348-14.195 16.34-24.524 19.586l-0.308 0.084c-11.179 3.371-526.635 3.285-537.387-0.085z" />
<glyph unicode="&#xe904;" glyph-name="align-justify" d="M114.987 744.235c-10.333-3.519-18.737-10.43-24.080-19.381l-0.112-0.203c-3.883-6.656-4.608-9.813-4.608-20.651 0-10.923 0.683-13.995 4.736-20.864 5.333-9.088 13.568-16 22.997-19.371 9.515-3.413 786.645-3.413 796.16 0 9.429 3.371 17.664 10.283 22.997 19.371 4.053 6.869 4.736 9.941 4.736 20.864 0 10.837-0.725 13.995-4.608 20.651-5.526 9.348-14.195 16.34-24.524 19.586l-0.308 0.084c-11.221 3.371-782.635 3.285-793.387-0.085zM114.987 573.568c-10.333-3.519-18.737-10.43-24.080-19.381l-0.112-0.203c-3.883-6.656-4.608-9.813-4.608-20.651 0-10.923 0.683-13.995 4.736-20.864 5.333-9.088 13.568-16 22.997-19.371 9.515-3.413 786.645-3.413 796.16 0 9.429 3.371 17.664 10.283 22.997 19.371 4.053 6.869 4.736 9.941 4.736 20.864 0 10.837-0.725 13.995-4.608 20.651-5.526 9.348-14.195 16.34-24.524 19.586l-0.308 0.084c-11.221 3.371-782.635 3.285-793.387-0.085zM114.987 402.901c-10.333-3.519-18.737-10.43-24.080-19.381l-0.112-0.203c-3.883-6.656-4.608-9.813-4.608-20.651 0-10.923 0.683-13.995 4.736-20.864 5.333-9.088 13.568-16 22.997-19.371 9.515-3.413 786.645-3.413 796.16 0 9.429 3.371 17.664 10.283 22.997 19.371 4.053 6.869 4.736 9.941 4.736 20.864 0 10.837-0.725 13.995-4.608 20.651-5.526 9.348-14.195 16.34-24.524 19.586l-0.308 0.084c-11.221 3.371-782.635 3.285-793.387-0.085zM114.987 232.235c-10.333-3.519-18.737-10.43-24.080-19.381l-0.112-0.203c-3.883-6.656-4.608-9.813-4.608-20.651 0-10.923 0.683-13.995 4.736-20.864 5.333-9.088 13.568-16 22.997-19.371 9.515-3.413 786.645-3.413 796.16 0 9.429 3.371 17.664 10.283 22.997 19.371 4.053 6.869 4.736 9.941 4.736 20.864 0 10.837-0.725 13.995-4.608 20.651-5.526 9.348-14.195 16.34-24.524 19.586l-0.308 0.084c-11.221 3.371-782.635 3.285-793.387-0.085z" />
<glyph unicode="&#xe905;" glyph-name="align-left" d="M114.987 744.235c-10.333-3.519-18.737-10.43-24.080-19.381l-0.112-0.203c-3.883-6.656-4.608-9.813-4.608-20.651 0-10.923 0.683-13.995 4.736-20.864 5.333-9.088 13.568-16 22.997-19.371 9.515-3.413 786.645-3.413 796.16 0 9.429 3.371 17.664 10.283 22.997 19.371 4.053 6.869 4.736 9.941 4.736 20.864 0 10.837-0.725 13.995-4.608 20.651-5.526 9.348-14.195 16.34-24.524 19.586l-0.308 0.084c-11.221 3.371-782.635 3.285-793.387-0.085zM114.987 573.568c-10.333-3.519-18.737-10.43-24.080-19.381l-0.112-0.203c-3.883-6.656-4.608-9.813-4.608-20.651 0-10.923 0.683-13.995 4.736-20.864 5.333-9.088 13.568-16 22.997-19.371 9.515-3.371 615.979-3.371 625.493 0 9.429 3.371 17.664 10.283 22.997 19.371 4.053 6.869 4.736 9.941 4.736 20.864 0 10.837-0.725 13.995-4.608 20.651-5.526 9.348-14.195 16.34-24.524 19.586l-0.308 0.084c-11.221 3.371-611.968 3.285-622.72-0.085zM114.987 402.901c-10.333-3.519-18.737-10.43-24.080-19.381l-0.112-0.203c-3.883-6.656-4.608-9.813-4.608-20.651 0-10.923 0.683-13.995 4.736-20.864 5.333-9.088 13.568-16 22.997-19.371 9.515-3.413 786.645-3.413 796.16 0 9.429 3.371 17.664 10.283 22.997 19.371 4.053 6.869 4.736 9.941 4.736 20.864 0 10.837-0.725 13.995-4.608 20.651-5.526 9.348-14.195 16.34-24.524 19.586l-0.308 0.084c-11.221 3.371-782.635 3.285-793.387-0.085zM114.987 232.235c-10.333-3.519-18.737-10.43-24.080-19.381l-0.112-0.203c-3.883-6.656-4.608-9.813-4.608-20.651 0-10.923 0.683-13.995 4.736-20.864 5.333-9.088 13.568-16 22.997-19.371 9.515-3.371 615.979-3.371 625.493 0 9.429 3.371 17.664 10.283 22.997 19.371 4.053 6.869 4.736 9.941 4.736 20.864 0 10.837-0.725 13.995-4.608 20.651-5.526 9.348-14.195 16.34-24.524 19.586l-0.308 0.084c-11.221 3.371-611.968 3.285-622.72-0.085z" />
<glyph unicode="&#xe906;" glyph-name="align-right" d="M114.987 744.235c-10.333-3.519-18.737-10.43-24.080-19.381l-0.112-0.203c-3.883-6.656-4.608-9.813-4.608-20.651 0-10.923 0.683-13.995 4.736-20.864 5.333-9.088 13.568-16 22.997-19.371 9.515-3.413 786.645-3.413 796.16 0 9.429 3.371 17.664 10.283 22.997 19.371 4.053 6.869 4.736 9.941 4.736 20.864 0 10.837-0.725 13.995-4.608 20.651-5.526 9.348-14.195 16.34-24.524 19.586l-0.308 0.084c-11.221 3.371-782.635 3.285-793.387-0.085zM285.653 573.568c-10.333-3.519-18.737-10.43-24.080-19.381l-0.112-0.203c-3.883-6.656-4.608-9.813-4.608-20.651 0-10.923 0.683-13.995 4.736-20.864 5.333-9.088 13.568-16 22.997-19.371 9.515-3.371 615.979-3.371 625.493 0 9.429 3.371 17.664 10.283 22.997 19.371 4.053 6.869 4.736 9.941 4.736 20.864 0 10.837-0.725 13.995-4.608 20.651-5.526 9.348-14.195 16.34-24.524 19.586l-0.308 0.084c-11.221 3.371-611.968 3.285-622.72-0.085zM114.987 402.901c-10.333-3.519-18.737-10.43-24.080-19.381l-0.112-0.203c-3.883-6.656-4.608-9.813-4.608-20.651 0-10.923 0.683-13.995 4.736-20.864 5.333-9.088 13.568-16 22.997-19.371 9.515-3.413 786.645-3.413 796.16 0 9.429 3.371 17.664 10.283 22.997 19.371 4.053 6.869 4.736 9.941 4.736 20.864 0 10.837-0.725 13.995-4.608 20.651-5.526 9.348-14.195 16.34-24.524 19.586l-0.308 0.084c-11.221 3.371-782.635 3.285-793.387-0.085zM285.653 232.235c-10.333-3.519-18.737-10.43-24.080-19.381l-0.112-0.203c-3.883-6.656-4.608-9.813-4.608-20.651 0-10.923 0.683-13.995 4.736-20.864 5.333-9.088 13.568-16 22.997-19.371 9.515-3.371 615.979-3.371 625.493 0 9.429 3.371 17.664 10.283 22.997 19.371 4.053 6.869 4.736 9.941 4.736 20.864 0 10.837-0.725 13.995-4.608 20.651-5.526 9.348-14.195 16.34-24.524 19.586l-0.308 0.084c-11.221 3.371-611.968 3.285-622.72-0.085z" />
<glyph unicode="&#xe907;" glyph-name="anchor" d="M484.608 914.731c-69.419-10.837-125.483-64.981-139.733-135.083-16.341-80.128 28.715-162.304 104.832-191.317 7.509-2.859 15.019-5.632 16.64-6.144 2.816-0.896 2.987-14.72 2.987-258.432v-257.493l-10.667 1.408c-64.768 8.533-134.016 38.528-186.88 80.853-31.741 26.169-58.968 56.231-81.405 89.769l-0.941 1.495c-28.459 43.392-52.565 108.587-57.429 155.349l-1.067 10.197 45.013 0.085c48.427 0.085 52.693 0.683 63.787 9.173 3.285 2.475 8.064 8.149 10.667 12.544 4.053 6.869 4.736 9.941 4.736 20.864 0 10.837-0.725 13.995-4.608 20.651-5.526 9.348-14.195 16.34-24.524 19.586l-0.308 0.084c-11.264 3.413-141.483 3.413-152.747 0-10.587-3.287-19.217-10.239-24.594-19.341l-0.11-0.201c-5.717-9.685-6.784-25.685-4.011-59.051 7.381-88.747 39.211-172.075 93.397-244.736 20.267-27.136 65.152-71.808 92.757-92.331 169.131-125.781 395.349-125.312 564.779 1.152 25.984 19.371 71.637 65.024 91.008 91.008 51.717 67.915 85.635 151.943 93.406 243.426l0.119 1.737c2.816 33.365 1.749 49.067-3.968 58.837-5.513 9.269-14.134 16.199-24.397 19.416l-0.307 0.083c-11.264 3.413-141.483 3.413-152.747 0-10.637-3.329-19.306-10.321-24.721-19.468l-0.111-0.202c-3.883-6.656-4.608-9.813-4.608-20.651 0-10.923 0.683-13.995 4.736-20.864 2.603-4.395 7.381-10.069 10.667-12.544 11.093-8.491 15.36-9.088 63.787-9.173l45.013-0.085-1.067-10.197c-4.864-46.763-28.971-111.957-57.429-155.349-22.272-33.963-53.888-68.821-83.627-92.288-53.291-42.027-121.557-71.381-185.6-79.829l-10.667-1.408v257.493c0 243.712 0.171 257.536 2.987 258.432 54.272 17.28 92.459 51.584 112.384 100.992 7.818 18.775 12.358 40.585 12.358 63.455 0 22.831-4.525 44.604-12.726 64.473l0.411-1.124c-22.511 55.302-71.795 95.49-131.313 104.752l-0.954 0.122c-7.884 1.385-16.962 2.177-26.225 2.177-9.532 0-18.868-0.838-27.939-2.446l0.959 0.141zM534.315 828.885c36.434-10.454 62.645-43.475 62.645-82.618 0-13.507-3.121-26.286-8.682-37.654l0.224 0.507c-6.613-13.568-24.149-31.787-36.821-38.187-11.608-6.001-25.337-9.52-39.888-9.52-7.377 0-14.542 0.904-21.392 2.608l0.608-0.128c-29.227 7.595-53.717 31.829-61.227 60.459-1.84 6.615-2.898 14.212-2.898 22.055 0 47.152 38.224 85.376 85.376 85.376 7.844 0 15.44-1.058 22.655-3.038l-0.599 0.14z" />
<glyph unicode="&#xe908;" glyph-name="aperture" d="M481.28 916.352l-23.893-2.56c-142.165-15.061-273.835-100.651-349.696-227.285-33.792-56.405-57.344-129.707-63.189-196.693-10.197-116.48 22.357-229.931 93.141-324.821 19.627-26.24 65.109-71.723 91.349-91.349 169.813-126.72 397.227-126.677 566.059 0.171 34.176 25.685 76.544 69.333 100.565 103.68 53.558 75.261 85.625 169.058 85.625 270.344 0 90.599-25.657 175.206-70.101 246.95l1.159-2.009c-19.285 31.659-38.955 56.277-69.12 86.357-40.747 40.704-77.099 66.901-125.525 90.411-46.848 22.741-87.723 35.243-142.507 43.477-16.939 2.56-80.725 4.821-93.867 3.328zM467.797 798.293l-120.192-208.128c-17.963-31.147-32.768-56.491-32.896-56.32 52.222-98.018 36.511-71.244 20.847-44.441l-68.249 126.403-47.104 81.621 9.771 11.008c39.595 44.331 100.907 83.84 160.853 103.68 29.653 9.813 66.688 17.451 87.424 17.963l8.021 0.213-18.475-32zM605.867 820.181c90.744-23.693 166.558-76.99 218.397-148.751l0.782-1.137 6.443-8.96h-171.691c-94.421 0-171.691 0.256-171.691 0.597 0 0.512 62.123 108.501 87.296 151.723 3.712 6.357 7.637 11.52 8.789 11.52 1.109 0 10.88-2.261 21.675-4.992zM242.389 488.107c40.576-70.4 79.061-137.045 85.504-148.053l11.648-20.096-189.867 0.896-3.115 9.131c-11.861 34.816-17.579 73.301-17.579 118.016 0 49.067 6.101 85.888 21.163 128 6.912 19.328 16.768 41.941 17.749 40.789 0.341-0.384 33.877-58.283 74.496-128.683zM622.080 513.493c19.712-34.261 35.84-63.744 35.84-65.493s-16.128-31.232-35.84-65.493l-35.84-62.379h-148.48l-35.84 62.379c-19.712 34.261-35.84 63.744-35.84 65.536 0 1.749 16.128 31.232 35.84 65.493l35.84 62.336h148.48l35.84-62.379zM877.44 566.016c11.861-34.816 17.579-73.301 17.579-118.016 0-49.067-6.101-85.888-21.163-128-6.912-19.328-16.768-41.941-17.749-40.789-0.384 0.384-29.696 50.987-65.152 112.469l-106.411 184.363 189.781-0.896 3.115-9.131zM756.693 280.149l47.147-81.621-9.429-10.539c-21.035-23.424-55.808-51.84-84.651-69.12-34.946-20.945-75.528-37.217-118.686-46.578l-2.658-0.483c-18.133-3.627-50.816-7.936-50.816-6.699 0 0.213 22.741 39.808 50.56 87.979 58.368 100.992 81.493 141.056 104.448 180.907 9.045 15.659 16.555 28.331 16.683 28.16 0.171-0.213 21.504-37.077 47.403-82.005zM535.893 234.069c0-1.024-92.373-160.597-93.867-162.176-2.005-2.091-24.021 3.072-52.053 12.203-34.275 12.151-63.859 26.813-91.33 44.476l1.73-1.041c-39.713 27.039-73.304 59.598-100.619 97.027l-0.8 1.149-6.443 8.96h171.691c94.421 0 171.691-0.256 171.691-0.597z" />
<glyph unicode="&#xe909;" glyph-name="archive" d="M29.653 872.235c-10.333-3.519-18.737-10.43-24.080-19.381l-0.112-0.203-4.608-7.851-0.469-115.712c-0.299-75.093 0.128-117.973 1.28-122.197 2.56-9.472 10.709-19.755 20.011-25.216 7.936-4.651 9.088-4.821 35.925-5.376l27.691-0.597 0.469-262.229 0.427-262.272 4.736-8.064c5.333-9.088 13.568-16 22.997-19.371 9.515-3.413 786.645-3.413 796.16 0 9.429 3.371 17.664 10.283 22.997 19.371l4.736 8.064 0.427 262.272 0.469 262.229 27.691 0.597c26.837 0.555 27.989 0.725 35.925 5.376 9.301 5.461 17.451 15.744 20.011 25.216 1.152 4.224 1.579 47.104 1.28 122.197l-0.469 115.712-4.608 7.851c-5.526 9.348-14.195 16.34-24.524 19.586l-0.308 0.084c-11.221 3.371-953.259 3.285-964.053-0.085zM938.667 725.333v-64h-853.333v128h853.333v-64zM853.333 341.333v-234.667h-682.667v469.333h682.667v-234.667zM413.653 488.235c-10.333-3.519-18.737-10.43-24.080-19.381l-0.112-0.203c-3.883-6.656-4.608-9.813-4.608-20.651 0-10.923 0.683-13.995 4.736-20.864 5.333-9.088 13.568-16 22.997-19.371 9.344-3.328 189.483-3.328 198.827 0 9.429 3.371 17.664 10.283 22.997 19.371 4.053 6.869 4.736 9.941 4.736 20.864 0 10.837-0.725 13.995-4.608 20.651-5.526 9.348-14.195 16.34-24.524 19.586l-0.308 0.084c-10.965 3.285-185.472 3.243-196.053-0.085z" />
<glyph unicode="&#xe90a;" glyph-name="arrow-down" d="M498.987 786.901c-10.333-3.519-18.737-10.43-24.080-19.381l-0.112-0.203-4.608-7.851-0.469-253.397-0.427-253.355-116.48 116.267c-112.683 112.512-116.736 116.352-125.696 118.955-11.349 3.328-16.128 3.413-26.155 0.384-10.637-3.329-19.306-10.321-24.721-19.468l-0.111-0.202c-3.925-6.656-4.608-9.771-4.565-20.651 0-9.045 0.939-14.549 3.157-18.773 1.707-3.285 72.363-75.349 156.971-160.171 166.997-167.381 161.408-162.347 180.309-162.347s13.312-5.035 180.309 162.347c84.608 84.821 155.264 156.885 156.971 160.171 2.219 4.224 3.157 9.728 3.157 18.773 0.043 10.88-0.64 13.995-4.565 20.651-5.526 9.348-14.195 16.34-24.524 19.586l-0.308 0.084c-10.027 3.029-14.805 2.944-26.155-0.384-8.96-2.603-13.013-6.443-125.696-118.955l-116.48-116.267-0.427 253.355-0.469 253.397-4.608 7.851c-7.531 12.997-21.374 21.6-37.227 21.6-4.641 0-9.109-0.737-13.295-2.101l0.303 0.085z" />
<glyph unicode="&#xe90b;" glyph-name="arrow-down-circle" d="M481.28 916.352l-23.893-2.56c-80.555-8.533-159.104-40.107-228.693-91.819-25.984-19.328-71.509-64.853-91.051-90.965-106.581-142.805-124.8-327.040-48.171-486.955 23.296-48.555 50.304-86.229 91.349-127.232 41.003-41.045 78.677-68.053 127.232-91.349 159.872-76.629 344.235-58.325 487.125 48.341 25.984 19.371 71.637 65.024 91.008 91.008 126.891 170.027 126.891 396.331 0 566.357-19.371 25.941-64.981 71.552-90.88 90.795-68.053 50.603-139.733 80-222.592 91.264-18.048 2.475-78.891 4.523-91.435 3.115zM568.32 827.691c109.355-16.512 204.971-78.080 266.24-171.477 12.928-19.755 31.701-57.984 39.765-81.067 14.763-42.368 20.693-78.72 20.693-127.147 0-63.701-10.965-111.829-38.272-168.107-30.080-62.037-75.477-113.792-134.528-153.259-33.664-22.528-87.509-45.056-128.811-53.973-24.244-5.414-52.089-8.515-80.658-8.515-91.486 0-175.543 31.805-241.717 84.962l0.754-0.586c-64.555 51.712-112.981 127.573-132.395 207.317-7.936 32.555-10.411 54.272-10.411 92.16 0 63.701 10.965 111.829 38.272 168.107 45.622 92.339 124.633 162.383 220.876 195.211l2.698 0.799c30.080 9.941 54.272 14.848 93.013 18.859 13.739 1.408 67.029-0.64 84.48-3.285zM498.987 658.901c-10.333-3.519-18.737-10.43-24.080-19.381l-0.112-0.203-4.608-7.851-0.939-250.624-52.437 52.181c-49.451 49.152-52.949 52.309-61.696 54.912-11.349 3.328-16.085 3.413-26.155 0.384-10.637-3.329-19.306-10.321-24.721-19.468l-0.111-0.202c-3.925-6.656-4.608-9.771-4.565-20.651 0-9.045 0.939-14.549 3.157-18.773 1.707-3.285 43.563-46.549 92.971-96.171 97.835-98.219 98.005-98.347 116.309-98.347s18.475 0.128 116.309 98.347c49.408 49.621 91.264 92.885 92.971 96.171 2.219 4.224 3.157 9.728 3.157 18.773 0.043 10.88-0.64 13.995-4.565 20.651-5.526 9.348-14.195 16.34-24.524 19.586l-0.308 0.084c-10.069 3.029-14.805 2.944-26.155-0.384-8.747-2.603-12.245-5.76-61.696-54.912l-52.437-52.181-0.939 250.624-4.608 7.851c-7.531 12.997-21.374 21.6-37.227 21.6-4.641 0-9.109-0.737-13.295-2.101l0.303 0.085z" />
<glyph unicode="&#xe90c;" glyph-name="arrow-down-left" d="M285.653 701.568c-10.333-3.519-18.737-10.43-24.080-19.381l-0.112-0.203-4.608-7.851-0.469-223.573c-0.427-204.331-0.213-224.213 2.347-230.997 3.883-10.283 11.904-18.859 22.016-23.552l8.533-3.968 221.867 0.043c180.907 0.043 223.061 0.469 228.267 2.347 9.429 3.371 17.664 10.283 22.997 19.371 4.053 6.869 4.736 9.941 4.736 20.864 0 10.837-0.725 13.995-4.608 20.651-3.006 4.864-6.602 9.016-10.76 12.523l-0.077 0.063c-12.715 9.685-7.808 9.429-185.771 9.429h-163.968l179.413 179.627c98.688 98.816 180.864 182.315 182.571 185.6 2.219 4.224 3.157 9.728 3.157 18.773 0.043 10.88-0.64 13.995-4.565 20.651-5.526 9.348-14.195 16.34-24.524 19.586l-0.308 0.084c-10.027 3.029-14.805 2.944-26.155-0.341-9.045-2.645-13.781-7.211-189.696-182.997l-180.437-180.267-0.469 168.021-0.469 168.064-4.608 7.851c-7.531 12.997-21.374 21.6-37.227 21.6-4.641 0-9.109-0.737-13.295-2.101l0.303 0.085z" />
<glyph unicode="&#xe90d;" glyph-name="arrow-down-right" d="M285.653 701.568c-10.333-3.519-18.737-10.43-24.080-19.381l-0.112-0.203c-3.925-6.656-4.608-9.771-4.565-20.651 0-9.045 0.939-14.549 3.157-18.773 1.707-3.285 83.883-86.784 182.571-185.6l179.413-179.627h-163.968c-177.963 0-173.056 0.256-185.771-9.429-3.413-2.603-8.32-8.277-10.837-12.587-3.883-6.656-4.608-9.813-4.608-20.651 0-10.923 0.683-13.995 4.736-20.864 5.333-9.088 13.568-16 22.997-19.371 5.205-1.877 47.36-2.304 228.267-2.347l221.867-0.043 8.533 3.968c10.112 4.693 18.133 13.269 22.016 23.552 2.56 6.784 2.773 26.667 2.347 230.997l-0.469 223.573-4.651 7.936c-7.625 12.82-21.406 21.277-37.163 21.277s-29.538-8.457-37.054-21.079l-0.109-0.198-4.651-7.936-0.469-168.064-0.469-168.021-180.437 180.267c-175.915 175.787-180.651 180.352-189.696 182.997-10.965 3.2-17.237 3.243-26.795 0.256z" />
<glyph unicode="&#xe90e;" glyph-name="arrow-left" d="M496.64 786.432c-6.656-2.261-28.373-23.253-162.731-157.312-168.32-167.893-163.2-162.219-163.2-181.12s-5.035-13.312 162.347-180.309c84.821-84.608 156.8-155.136 159.957-156.715 19.413-9.771 44.629-1.92 55.979 17.365 4.139 7.040 4.821 9.984 4.779 20.992 0 9.045-0.939 14.549-3.157 18.773-1.707 3.285-55.083 57.984-118.571 121.6l-115.413 115.627 250.837 0.085c205.141 0.043 252.032 0.469 257.28 2.347 9.429 3.371 17.664 10.283 22.997 19.371 4.053 6.869 4.736 9.941 4.736 20.864 0 10.837-0.725 13.995-4.608 20.651-5.526 9.348-14.195 16.34-24.524 19.586l-0.308 0.084c-6.443 1.963-50.816 2.347-257.109 2.347h-249.301l115.413 115.627c63.488 63.573 116.864 118.315 118.571 121.6 2.219 4.224 3.157 9.728 3.157 18.773 0.043 10.88-0.64 13.995-4.565 20.651-7.621 13.107-21.599 21.779-37.602 21.779-5.372 0-10.515-0.977-15.262-2.763l0.299 0.099z" />
<glyph unicode="&#xe90f;" glyph-name="arrow-left-circle" d="M481.28 916.352l-23.893-2.56c-80.555-8.533-159.104-40.107-228.693-91.819-25.984-19.328-71.509-64.853-91.051-90.965-106.581-142.805-124.8-327.040-48.171-486.955 23.296-48.555 50.304-86.229 91.349-127.232 41.003-41.045 78.677-68.053 127.232-91.349 159.872-76.629 344.235-58.325 487.125 48.341 25.984 19.371 71.637 65.024 91.008 91.008 126.891 170.027 126.891 396.331 0 566.357-19.371 25.941-64.981 71.552-90.88 90.795-68.053 50.603-139.733 80-222.592 91.264-18.048 2.475-78.891 4.523-91.435 3.115zM568.32 827.691c109.355-16.512 204.971-78.080 266.24-171.477 12.928-19.755 31.701-57.984 39.765-81.067 14.763-42.368 20.693-78.72 20.693-127.147 0-63.701-10.965-111.829-38.272-168.107-30.080-62.037-75.477-113.792-134.528-153.259-33.664-22.528-87.509-45.056-128.811-53.973-24.244-5.414-52.089-8.515-80.658-8.515-91.486 0-175.543 31.805-241.717 84.962l0.754-0.586c-64.555 51.712-112.981 127.573-132.395 207.317-7.936 32.555-10.411 54.272-10.411 92.16 0 63.701 10.965 111.829 38.272 168.107 45.622 92.339 124.633 162.383 220.876 195.211l2.698 0.799c30.080 9.941 54.272 14.848 93.013 18.859 13.739 1.408 67.029-0.64 84.48-3.285zM496.64 658.432c-6.571-2.261-20.992-15.915-98.731-93.312-99.2-98.731-99.2-98.731-99.2-117.12 0-18.304 0.128-18.475 98.347-116.309 49.621-49.408 92.885-91.264 96.171-92.971 4.224-2.219 9.728-3.157 18.773-3.157 11.008-0.043 13.952 0.64 20.992 4.779 9.472 5.547 17.451 15.744 20.181 25.728 0.72 3.2 1.132 6.876 1.132 10.647 0 7.077-1.452 13.816-4.074 19.933l0.126-0.33c-1.579 3.157-26.027 28.971-54.315 57.387l-51.371 51.627 122.837 0.085c98.133 0.043 124.117 0.512 129.237 2.347 9.429 3.371 17.664 10.283 22.997 19.371 4.053 6.869 4.736 9.941 4.736 20.864 0 10.837-0.725 13.995-4.608 20.651-3.006 4.864-6.602 9.016-10.76 12.523l-0.077 0.063c-12.459 9.515-11.477 9.429-143.061 9.429h-121.301l51.371 51.627c28.288 28.373 52.821 54.315 54.571 57.6 2.219 4.224 3.157 9.685 3.157 18.773 0.043 10.88-0.64 13.995-4.565 20.651-7.621 13.107-21.599 21.779-37.602 21.779-5.372 0-10.515-0.977-15.262-2.763l0.299 0.099z" />
<glyph unicode="&#xe910;" glyph-name="arrow-right" d="M497.92 786.731c-9.472-3.456-17.92-10.581-23.125-19.413-3.925-6.656-4.608-9.771-4.565-20.651 0-9.045 0.939-14.549 3.157-18.773 1.707-3.285 55.083-58.027 118.571-121.6l115.413-115.627h-249.301c-206.293 0-250.667-0.384-257.109-2.347-10.637-3.329-19.306-10.321-24.721-19.468l-0.111-0.202c-3.883-6.656-4.608-9.813-4.608-20.651 0-10.923 0.683-13.995 4.736-20.864 5.333-9.088 13.568-16 22.997-19.371 5.248-1.877 52.139-2.304 257.28-2.347l250.837-0.085-115.413-115.627c-63.488-63.616-116.864-118.315-118.571-121.6-2.219-4.224-3.157-9.728-3.157-18.773-0.043-11.008 0.64-13.952 4.779-20.992 5.547-9.472 15.744-17.451 25.728-20.181 8.619-2.304 22.613-1.024 30.251 2.816 3.157 1.579 75.136 72.107 159.957 156.715 167.381 166.997 162.347 161.408 162.347 180.309s5.163 13.227-163.2 181.12c-141.653 141.312-155.776 154.88-163.456 157.44-4.345 1.606-9.364 2.535-14.6 2.535-5.055 0-9.908-0.866-14.418-2.458l0.303 0.093z" />
<glyph unicode="&#xe911;" glyph-name="arrow-right-circle" d="M481.28 916.352l-23.893-2.56c-80.555-8.533-159.104-40.107-228.693-91.819-25.984-19.328-71.509-64.853-91.051-90.965-106.581-142.805-124.8-327.040-48.171-486.955 23.296-48.555 50.304-86.229 91.349-127.232 41.003-41.045 78.677-68.053 127.232-91.349 159.872-76.629 344.235-58.325 487.125 48.341 25.984 19.371 71.637 65.024 91.008 91.008 126.891 170.027 126.891 396.331 0 566.357-19.371 25.941-64.981 71.552-90.88 90.795-68.053 50.603-139.733 80-222.592 91.264-18.048 2.475-78.891 4.523-91.435 3.115zM568.32 827.691c109.355-16.512 204.971-78.080 266.24-171.477 12.928-19.755 31.701-57.984 39.765-81.067 14.763-42.368 20.693-78.72 20.693-127.147 0-63.701-10.965-111.829-38.272-168.107-30.080-62.037-75.477-113.792-134.528-153.259-33.664-22.528-87.509-45.056-128.811-53.973-24.244-5.414-52.089-8.515-80.658-8.515-91.486 0-175.543 31.805-241.717 84.962l0.754-0.586c-64.555 51.712-112.981 127.573-132.395 207.317-7.936 32.555-10.411 54.272-10.411 92.16 0 63.701 10.965 111.829 38.272 168.107 45.622 92.339 124.633 162.383 220.876 195.211l2.698 0.799c30.080 9.941 54.272 14.848 93.013 18.859 13.739 1.408 67.029-0.64 84.48-3.285zM497.92 658.731c-9.472-3.456-17.92-10.581-23.125-19.413-3.925-6.656-4.608-9.771-4.565-20.651 0-9.088 0.939-14.549 3.157-18.773 1.749-3.285 26.283-29.227 54.571-57.6l51.371-51.627h-121.301c-131.584 0-130.603 0.085-143.061-9.429-3.413-2.603-8.32-8.277-10.837-12.587-3.883-6.656-4.608-9.813-4.608-20.651 0-10.923 0.683-13.995 4.736-20.864 5.333-9.088 13.568-16 22.997-19.371 5.12-1.835 31.104-2.304 129.237-2.347l122.837-0.085-51.371-51.627c-28.288-28.416-52.736-54.229-54.315-57.387-9.771-19.371-1.92-44.629 17.365-55.979 7.040-4.139 9.984-4.821 20.992-4.779 9.045 0 14.549 0.939 18.773 3.157 3.285 1.707 46.549 43.563 96.171 92.971 98.219 97.835 98.347 98.005 98.347 116.309 0 18.389 0 18.389-99.2 117.12-82.091 81.707-91.861 90.923-99.456 93.44-4.345 1.606-9.364 2.535-14.6 2.535-5.055 0-9.908-0.866-14.418-2.458l0.303 0.093z" />
<glyph unicode="&#xe912;" glyph-name="arrow-up" d="M494.080 785.237c-6.869-3.285-38.699-34.304-162.389-158.293-84.608-84.821-155.136-156.8-156.715-159.957-9.771-19.413-1.92-44.629 17.365-55.979 7.040-4.139 9.984-4.821 20.992-4.779 9.045 0 14.549 0.939 18.773 3.157 3.285 1.707 57.984 55.040 121.557 118.528l115.627 115.413 0.427-253.525 0.469-253.525 5.163-8.405c7.549-12.6 21.13-20.904 36.651-20.904s29.102 8.304 36.543 20.711l0.107 0.193 5.163 8.405 0.469 253.525 0.427 253.525 115.627-115.413c63.573-63.488 118.272-116.821 121.557-118.528 4.224-2.219 9.728-3.157 18.773-3.157 11.008-0.043 13.952 0.64 20.992 4.779 9.472 5.547 17.451 15.744 20.181 25.728 2.304 8.619 1.024 22.613-2.816 30.251-1.579 3.157-72.107 75.136-156.715 159.957-123.691 123.989-155.52 155.008-162.389 158.293-5.238 2.584-11.402 4.095-17.92 4.095s-12.682-1.511-18.163-4.203l0.243 0.108z" />
<glyph unicode="&#xe913;" glyph-name="arrow-up-circle" d="M481.28 916.352l-23.893-2.56c-80.555-8.533-159.104-40.107-228.693-91.819-25.984-19.328-71.509-64.853-91.051-90.965-106.581-142.805-124.8-327.040-48.171-486.955 23.296-48.555 50.304-86.229 91.349-127.232 41.003-41.045 78.677-68.053 127.232-91.349 159.872-76.629 344.235-58.325 487.125 48.341 25.984 19.371 71.637 65.024 91.008 91.008 126.891 170.027 126.891 396.331 0 566.357-19.371 25.941-64.981 71.552-90.88 90.795-68.053 50.603-139.733 80-222.592 91.264-18.048 2.475-78.891 4.523-91.435 3.115zM568.32 827.691c109.355-16.512 204.971-78.080 266.24-171.477 12.928-19.755 31.701-57.984 39.765-81.067 14.763-42.368 20.693-78.72 20.693-127.147 0-63.701-10.965-111.829-38.272-168.107-30.080-62.037-75.477-113.792-134.528-153.259-33.664-22.528-87.509-45.056-128.811-53.973-24.244-5.414-52.089-8.515-80.658-8.515-91.486 0-175.543 31.805-241.717 84.962l0.754-0.586c-64.555 51.712-112.981 127.573-132.395 207.317-7.936 32.555-10.411 54.272-10.411 92.16 0 63.701 10.965 111.829 38.272 168.107 45.622 92.339 124.633 162.383 220.876 195.211l2.698 0.799c30.080 9.941 54.272 14.848 93.013 18.859 13.739 1.408 67.029-0.64 84.48-3.285zM494.080 657.237c-6.741-3.243-27.307-22.955-98.389-94.293-49.408-49.621-91.136-92.8-92.715-95.957-9.771-19.413-1.92-44.629 17.365-55.979 7.040-4.139 9.984-4.821 20.992-4.779 9.088 0 14.549 0.939 18.773 3.157 3.285 1.749 29.184 26.24 57.557 54.485l51.584 51.371 0.939-250.965 5.163-8.405c7.549-12.6 21.13-20.904 36.651-20.904s29.102 8.304 36.543 20.711l0.107 0.193 5.163 8.405 0.939 250.965 51.584-51.371c28.373-28.245 54.272-52.736 57.557-54.485 4.224-2.219 9.685-3.157 18.773-3.157 11.008-0.043 13.952 0.64 20.992 4.779 9.472 5.547 17.451 15.744 20.181 25.728 0.72 3.2 1.132 6.876 1.132 10.647 0 7.077-1.452 13.816-4.074 19.933l0.126-0.33c-1.579 3.157-43.307 46.336-92.715 95.957-97.835 98.219-98.005 98.347-116.309 98.347-0.089 0.001-0.194 0.001-0.299 0.001-6.412 0-12.474-1.497-17.857-4.16l0.236 0.105z" />
<glyph unicode="&#xe914;" glyph-name="arrow-up-left" d="M280.747 699.989c-10.112-4.693-18.133-13.269-22.016-23.552-2.56-6.784-2.773-26.709-2.347-231.125l0.469-223.701 5.163-8.405c7.549-12.6 21.13-20.904 36.651-20.904s29.102 8.304 36.543 20.711l0.107 0.193 5.163 8.405 0.939 336.384 179.584-179.413c98.773-98.688 182.272-180.821 185.557-182.528 4.224-2.219 9.728-3.157 18.773-3.157 11.008-0.043 13.952 0.64 20.992 4.779 9.472 5.547 17.451 15.744 20.181 25.728 2.304 8.619 1.024 22.613-2.816 30.251-1.579 3.157-83.627 86.571-182.315 185.387l-179.413 179.627 165.504 0.085c133.845 0.043 166.784 0.512 171.947 2.347 9.429 3.371 17.664 10.283 22.997 19.371 4.053 6.869 4.736 9.941 4.736 20.864 0 10.837-0.725 13.995-4.608 20.651-5.526 9.348-14.195 16.34-24.524 19.586l-0.308 0.084c-6.443 1.92-46.336 2.347-228.096 2.347l-220.331-0.043-8.533-3.968z" />
<glyph unicode="&#xe915;" glyph-name="arrow-up-right" d="M285.653 701.568c-10.333-3.519-18.737-10.43-24.080-19.381l-0.112-0.203c-3.883-6.656-4.608-9.813-4.608-20.651 0-10.923 0.683-13.995 4.736-20.864 5.333-9.088 13.568-16 22.997-19.371 5.163-1.835 38.101-2.304 171.947-2.347l165.504-0.085-179.413-179.627c-98.688-98.773-180.864-182.315-182.571-185.6-2.219-4.224-3.157-9.728-3.157-18.773-0.043-11.008 0.64-13.952 4.779-20.992 5.547-9.472 15.744-17.451 25.728-20.181 8.619-2.304 22.613-1.024 30.251 2.816 3.157 1.579 86.571 83.584 185.344 182.272l179.584 179.413 0.939-336.384 5.163-8.405c7.549-12.6 21.13-20.904 36.651-20.904s29.102 8.304 36.543 20.711l0.107 0.193 5.163 8.405 0.469 223.701c0.427 204.416 0.213 224.341-2.347 231.125-4.11 10.489-11.905 18.782-21.755 23.441l-0.261 0.111-8.533 3.968-221.013-0.085c-175.744-0.085-222.464-0.555-228.053-2.304z" />
<glyph unicode="&#xe916;" glyph-name="at-sign" d="M481.28 916.309l-23.040-2.517c-83.115-8.832-166.528-43.008-236.245-96.768-22.059-17.024-67.2-63.061-84.224-85.845-59.435-79.787-91.136-169.856-94.507-268.672-3.669-106.581 29.141-209.877 94.507-297.685 19.2-25.813 64.896-71.467 91.051-91.008 121.301-90.624 272.555-117.931 417.152-75.349 51.726 15.414 96.824 37.812 137.070 66.565l-1.39-0.944c8.917 6.315 18.219 13.696 20.693 16.384 7.125 7.422 11.513 17.52 11.513 28.643 0 10.479-3.894 20.048-10.315 27.339l0.039-0.046c-9.941 11.264-19.2 15.147-34.56 14.379l-12.544-0.64-24.533-16.469c-49.707-33.408-94.165-52.181-148.267-62.635-21.834-4.296-46.94-6.754-72.619-6.754-19.597 0-38.86 1.432-57.689 4.196l2.138-0.258c-99.086 15.436-184.042 66.663-242.874 139.796l-0.582 0.748c-33.707 42.155-60.715 97.109-72.661 147.925-8.235 35.029-10.496 55.211-10.325 93.013 0.171 49.067 6.912 87.637 22.827 130.56 41.088 110.891 131.328 197.504 242.475 232.747 42.709 13.568 70.613 17.835 116.779 17.963 40.533 0.085 60.544-2.347 97.323-11.819 87.793-23.225 161.262-74.441 212.17-143.34l0.737-1.044c37.675-51.157 60.757-107.776 70.443-173.013 3.541-23.765 5.248-95.531 2.688-110.933-3.088-17.986-11.68-33.579-23.952-45.371l-0.027-0.026c-17.109-17.195-36.523-25.429-59.861-25.429-30.216 0.095-56.724 15.88-71.815 39.632l-0.206 0.347c-12.843 19.883-12.245 13.312-13.269 149.461l-0.896 122.027-4.651 7.936c-7.598 12.892-21.411 21.406-37.214 21.406-3.217 0-6.351-0.353-9.366-1.022l0.286 0.053c-16.725-3.755-30.208-17.621-32.768-33.749l-1.152-7.125-11.349 7.339c-31.147 20.053-58.837 29.696-96.213 33.493-6.125 0.611-13.238 0.96-20.433 0.96-26.685 0-52.249-4.794-75.88-13.567l1.508 0.49c-50.926-19.966-91.526-57.014-115.568-103.947l-0.571-1.226c-15.701-31.915-21.589-57.643-21.589-94.507 0-28.587 2.475-44.544 10.581-68.267 24.661-72.149 84.693-124.8 160.939-141.099 20.096-4.309 61.824-4.309 81.92 0 42.202 8.883 78.767 28.928 107.62 56.887l-0.057-0.055 11.093 10.837 7.68-9.643c4.181-5.291 13.227-14.421 20.096-20.309 88.96-76.203 225.579-42.965 269.312 65.493 3.2 8.021 7.467 22.272 9.387 31.744 3.285 15.872 3.499 21.248 2.731 68.437-0.939 57.387-3.669 81.024-13.909 121.003-22.187 86.485-65.109 160.085-130.005 222.891-72.235 69.931-162.091 113.195-264.107 127.189-18.347 2.517-79.275 4.651-91.52 3.2zM548.736 570.496c40.235-11.776 73.515-44.971 85.931-85.76 3.541-11.648 4.181-17.195 4.181-36.736s-0.64-25.088-4.181-36.736c-13.188-41.45-45.29-73.411-85.898-86.149l-0.929-0.251c-18.517-5.76-53.163-5.76-71.68 0-41.537 12.989-73.638 44.95-86.571 85.472l-0.256 0.928c-3.541 11.648-4.181 17.195-4.181 36.736s0.64 25.088 4.181 36.736c14.554 46.192 53.008 80.736 100.495 89.436l0.796 0.121c14.208 2.56 42.709 0.725 58.112-3.797z" />
<glyph unicode="&#xe917;" glyph-name="award" d="M478.165 958.165c-70.624-7.466-133.63-35.294-184.327-77.424l0.562 0.454c-37.391-30.892-67.604-69.048-88.726-112.443l-0.874-1.989c-21.414-43.348-33.942-94.376-33.942-148.33 0-81.7 28.725-156.69 76.627-215.423l-0.488 0.617c10.539-12.971 38.4-40.875 50.731-50.816l6.741-5.419-24.448-184.149c-18.005-135.296-24.149-186.197-23.296-192 3.584-23.979 31.403-40.96 54.144-33.109 4.096 1.408 50.944 28.672 104.107 60.629l96.725 58.069 95.275-57.259c52.437-31.488 98.987-58.667 103.424-60.416 4.511-1.842 9.746-2.911 15.23-2.911 11.609 0 22.1 4.79 29.603 12.501l0.009 0.009c7.125 7.125 12.715 19.413 12.8 28.075 0 2.432-10.88 86.784-24.235 187.477l-24.235 183.083 6.699 5.419c3.712 2.987 14.293 12.757 23.552 21.717 63.837 61.793 103.464 148.262 103.464 243.986 0 53.942-12.583 104.945-34.975 150.233l0.887-1.985c-21.996 45.384-52.209 83.54-89.035 113.979l-0.565 0.453c-68.992 57.728-160.555 85.76-251.435 76.971zM536.064 873.003c101.554-9.811 185.034-77.751 217.351-169.772l0.548-1.791c21.205-62.165 16.939-136.149-11.136-192.853-36.651-74.027-100.523-123.691-181.333-141.013-25.856-5.547-73.131-5.547-98.987 0-81.28 17.451-144.469 66.56-181.333 141.013-28.075 56.704-32.341 130.688-11.136 192.853 13.084 37.66 33.544 69.843 59.826 96.221l-0.007-0.008c45.938 47.268 110.117 76.596 181.147 76.596 8.826 0 17.546-0.453 26.138-1.336l-1.077 0.090zM405.504 294.571c70.315-23.040 142.677-23.040 213.035 0 11.179 3.669 20.48 6.485 20.651 6.229 0.981-1.152 31.573-237.312 30.891-237.995-0.469-0.469-32.171 17.92-70.485 40.875s-72.277 42.624-75.477 43.691c-3.601 1.132-7.753 1.841-12.053 1.961l-0.064 0.001c-3.456 0-8.917-0.896-12.117-1.963s-37.163-20.736-75.477-43.691c-38.315-22.955-70.016-41.344-70.443-40.917-0.683 0.683 30.165 238.464 30.933 238.464 0.171 0 9.429-2.987 20.608-6.656z" />
<glyph unicode="&#xe918;" glyph-name="bar-chart" d="M754.987 829.568c-10.333-3.519-18.737-10.43-24.080-19.381l-0.112-0.203-4.608-7.851v-708.523l5.163-8.405c7.549-12.6 21.13-20.904 36.651-20.904s29.102 8.304 36.543 20.711l0.107 0.193 5.163 8.405v708.523l-4.608 7.851c-7.531 12.997-21.374 21.6-37.227 21.6-4.641 0-9.109-0.737-13.295-2.101l0.303 0.085zM498.987 573.568c-10.333-3.519-18.737-10.43-24.080-19.381l-0.112-0.203-4.608-7.851v-452.523l5.163-8.405c7.549-12.6 21.13-20.904 36.651-20.904s29.102 8.304 36.543 20.711l0.107 0.193 5.163 8.405v452.523l-4.608 7.851c-7.531 12.997-21.374 21.6-37.227 21.6-4.641 0-9.109-0.737-13.295-2.101l0.303 0.085zM242.987 317.568c-10.333-3.519-18.737-10.43-24.080-19.381l-0.112-0.203-4.608-7.851v-196.523l5.163-8.405c2.901-4.693 8.747-10.795 13.269-13.867 20.096-13.483 47.019-7.296 60.032 13.867l5.163 8.405v196.523l-4.608 7.851c-7.531 12.997-21.374 21.6-37.227 21.6-4.641 0-9.109-0.737-13.295-2.101l0.303 0.085z" />
<glyph unicode="&#xe919;" glyph-name="bar-chart-2" d="M498.987 829.568c-10.333-3.519-18.737-10.43-24.080-19.381l-0.112-0.203-4.608-7.851v-708.523l5.163-8.405c7.549-12.6 21.13-20.904 36.651-20.904s29.102 8.304 36.543 20.711l0.107 0.193 5.163 8.405v708.523l-4.608 7.851c-7.531 12.997-21.374 21.6-37.227 21.6-4.641 0-9.109-0.737-13.295-2.101l0.303 0.085zM754.987 573.568c-10.333-3.519-18.737-10.43-24.080-19.381l-0.112-0.203-4.608-7.851v-452.523l5.163-8.405c7.549-12.6 21.13-20.904 36.651-20.904s29.102 8.304 36.543 20.711l0.107 0.193 5.163 8.405v452.523l-4.608 7.851c-7.531 12.997-21.374 21.6-37.227 21.6-4.641 0-9.109-0.737-13.295-2.101l0.303 0.085zM242.987 402.901c-10.333-3.519-18.737-10.43-24.080-19.381l-0.112-0.203-4.608-7.851v-281.856l5.163-8.405c7.549-12.6 21.13-20.904 36.651-20.904s29.102 8.304 36.543 20.711l0.107 0.193 5.163 8.405v281.856l-4.608 7.851c-7.531 12.997-21.374 21.6-37.227 21.6-4.641 0-9.109-0.737-13.295-2.101l0.303 0.085z" />
<glyph unicode="&#xe91a;" glyph-name="battery" d="M106.624 744.832c-47.744-8.064-86.955-42.88-101.76-90.325l-4.011-12.8v-387.413l4.011-12.8c13.117-41.864 45.432-74.179 86.363-87.043l0.933-0.253 12.8-4.011h643.413l12.8 4.011c41.864 13.117 74.179 45.432 87.043 86.363l0.253 0.933 4.011 12.8v387.413l-4.011 12.8c-13.049 41.546-44.977 73.67-85.467 86.737l-0.933 0.26-13.696 4.309-316.587 0.256c-174.123 0.128-320.469-0.427-325.163-1.237zM738.56 658.731c11.904-3.541 23.296-14.933 26.837-26.837 2.261-7.552 2.603-32.043 2.603-183.936 0-190.165 0.299-184.235-9.429-196.992-2.603-3.413-8.277-8.32-12.587-10.837l-7.851-4.608h-622.933l-7.851 4.608c-9.034 5.384-15.9 13.602-19.443 23.41l-0.099 0.312c-3.797 10.837-3.712 355.157 0.128 368.043 3.371 11.477 14.976 23.339 26.112 26.752 12.416 3.797 611.669 3.925 624.512 0.085zM968.32 530.901c-10.333-3.519-18.737-10.43-24.080-19.381l-0.112-0.203-4.608-7.851v-111.189l5.163-8.405c7.549-12.6 21.13-20.904 36.651-20.904s29.102 8.304 36.543 20.711l0.107 0.193 5.163 8.405v111.189l-4.608 7.851c-7.531 12.997-21.374 21.6-37.227 21.6-4.641 0-9.109-0.737-13.295-2.101l0.303 0.085z" />
<glyph unicode="&#xe91b;" glyph-name="battery-charging" d="M106.624 744.875c-47.872-8.192-86.955-42.923-101.76-90.368l-4.011-12.8v-387.413l4.011-12.8c13.11-41.577 45.023-73.743 85.505-86.946l0.937-0.265c11.264-3.669 15.147-3.925 69.291-4.565 37.675-0.427 59.691-0.043 64.171 1.195 9.813 2.645 20.011 10.667 25.557 20.096 4.139 7.040 4.821 10.027 4.821 20.992 0 10.837-0.725 13.995-4.608 20.651-5.077 8.299-12.339 14.821-20.993 18.862l-0.298 0.125c-3.285 1.408-22.144 2.347-59.435 2.987l-54.613 0.896-7.851 4.608c-4.793 2.951-8.888 6.476-12.356 10.551l-0.060 0.073c-10.027 13.141-9.6 4.608-9.6 196.309 0 199.040-0.725 187.691 12.928 201.344 12.8 12.757 13.995 12.928 98.859 12.928 82.261 0 83.755 0.171 95.36 11.477 9.984 9.643 13.739 18.219 13.739 31.189 0 16.768-8.064 29.739-23.723 38.144-6.741 3.584-8.533 3.669-87.083 3.925-44.117 0.128-84.096-0.384-88.789-1.195zM455.168 744.064c-4.459-1.765-8.295-3.815-11.858-6.236l0.21 0.135c-5.803-4.096-181.632-266.496-185.216-276.309-6.869-19.029 2.688-42.368 21.163-51.456l8.107-4.011 186.88-1.707-64.896-97.28c-35.669-53.504-65.621-99.968-66.517-103.253-5.248-18.688 2.901-38.912 19.584-48.725 9.131-5.333 23.296-7.168 32.64-4.224 16.171 5.12 14.763 3.285 108.416 143.744 48.939 73.344 90.112 136.789 91.52 140.928 6.784 19.883-4.139 42.923-24.619 52.011-3.584 1.579-28.757 2.347-98.261 2.987l-93.44 0.853 64.171 96.213c35.285 52.949 65.237 99.285 66.56 103.040 11.435 32.427-22.016 65.152-54.443 53.291zM626.987 744.32c-10.326-3.575-18.722-10.506-24.079-19.465l-0.113-0.204c-3.883-6.656-4.608-9.813-4.608-20.651 0-10.923 0.683-13.995 4.736-20.864 2.603-4.395 7.381-10.069 10.667-12.544 11.221-8.576 15.061-9.088 67.499-9.173 57.301-0.085 61.867-0.896 73.984-13.013 13.653-13.653 12.928-2.389 12.928-200.448 0-190.165 0.299-184.235-9.429-196.992-2.603-3.413-8.277-8.32-12.587-10.837l-7.851-4.608-80.213-0.853c-77.952-0.811-80.384-0.939-87.083-4.523-15.659-8.405-23.723-21.376-23.723-38.144 0-12.971 3.755-21.547 13.739-31.232 11.989-11.648 12.587-11.733 105.941-11.051 81.664 0.555 83.499 0.683 95.232 4.523 41.409 13.508 73.312 45.678 86.186 86.313l0.257 0.94 4.011 12.8v387.413l-4.011 12.8c-13.004 41.539-44.957 73.646-85.471 86.612l-0.929 0.257c-13.227 4.096-15.616 4.224-70.869 4.693-44.117 0.384-58.795 0-64.213-1.749zM968.32 530.901c-10.333-3.519-18.737-10.43-24.080-19.381l-0.112-0.203-4.608-7.851v-111.189l5.163-8.405c7.549-12.6 21.13-20.904 36.651-20.904s29.102 8.304 36.543 20.711l0.107 0.193 5.163 8.405v111.189l-4.608 7.851c-7.531 12.997-21.374 21.6-37.227 21.6-4.641 0-9.109-0.737-13.295-2.101l0.303 0.085z" />
<glyph unicode="&#xe91c;" glyph-name="bell" d="M492.373 916.352c-35.2-3.371-55.040-7.552-81.92-17.237-82.18-30.405-146.096-93.471-176.967-173.021l-0.697-2.041c-13.141-34.432-17.365-59.264-19.456-113.92-2.091-54.784-3.072-69.163-6.912-99.84-8.021-64-23.467-118.144-47.317-165.675-12.957-26.492-29.412-49.138-49.115-68.487l-0.037-0.036c-21.888-21.845-25.813-29.312-24.107-45.739 1.152-11.093 4.523-17.877 13.312-26.368 13.397-13.013-22.443-11.989 413.568-11.904 322.133 0.043 392.064 0.469 397.355 2.347 16.633 6.077 28.291 21.763 28.291 40.172 0 4.767-0.782 9.352-2.224 13.633l0.088-0.301c-2.347 7.040-6.4 12.16-22.101 27.989-19.612 19.383-36.014 41.959-48.371 66.896l-0.653 1.456c-25.045 49.877-40.491 104.875-48.341 171.989-3.2 27.435-4.181 42.752-6.101 93.867-2.048 54.315-5.376 74.411-18.219 110.080-36.565 101.632-127.659 176.939-233.429 192.939-16.043 2.432-54.997 4.309-66.645 3.2zM535.552 830.165c81-9.307 147.558-62.716 175.632-135.288l0.496-1.459c9.301-24.149 13.653-53.035 13.653-90.453 0.043-25.813 3.755-78.080 7.637-107.136 9.899-74.155 28.928-137.685 58.069-194.176l12.544-24.32h-583.168l12.544 24.32c29.141 56.491 48.085 119.851 58.069 194.176 3.755 27.947 7.595 82.432 7.637 107.989 0 36.565 4.437 65.664 13.653 89.6 31.265 81.367 108.774 138.069 199.527 138.069 8.352 0 16.592-0.48 24.693-1.415l-0.988 0.093zM424.363 103.893c-10.581-3.243-23.381-15.701-26.325-25.6-6.187-20.821 0.384-37.504 24.235-61.397 13.099-13.184 17.963-16.768 31.701-23.467 22.528-11.008 34.261-13.824 58.027-13.824s35.499 2.816 58.027 13.824c13.739 6.699 18.603 10.283 31.701 23.467 18.944 18.987 26.325 32.171 26.325 47.061-0.193 23.347-19.163 42.198-42.537 42.198-3.221 0-6.358-0.358-9.373-1.036l0.284 0.054c-10.837-2.475-19.371-8.619-28.117-20.309-8.064-10.709-13.483-15.061-22.741-18.347-4.035-1.52-8.699-2.4-13.568-2.4s-9.533 0.88-13.841 2.489l0.273-0.089c-9.259 3.285-14.677 7.637-22.784 18.432-14.464 19.243-30.72 25.259-51.285 18.944z" />
<glyph unicode="&#xe91d;" glyph-name="bell-off" d="M29.653 957.568c-10.333-3.519-18.737-10.43-24.080-19.381l-0.112-0.203c-3.883-6.656-4.608-9.813-4.608-20.651s0.683-13.952 4.565-20.48c2.56-4.267 51.029-54.059 109.397-112.341l104.789-104.704-2.261-12.203c-1.237-6.741-3.029-32.597-3.968-57.472-3.371-89.045-9.557-136.533-24.704-189.184-18.176-63.061-43.477-109.611-78.72-144.853-21.888-21.845-25.813-29.312-24.107-45.739 1.152-11.093 4.523-17.877 13.312-26.368 13.312-12.928-11.179-11.989 315.435-11.989h292.821l122.88-123.008c69.163-69.205 126.251-124.971 130.56-127.573 6.528-3.883 9.643-4.565 20.48-4.565 10.965 0 13.952 0.683 20.992 4.821 20.309 11.947 27.605 38.4 15.915 57.984-2.347 3.925-217.6 220.416-478.379 481.067-466.048 465.792-474.325 473.941-483.413 476.587-10.965 3.2-17.237 3.243-26.795 0.256zM476.757 915.456c-42.748-5.14-81.443-18.725-115.658-39.060l1.354 0.745c-20.565-12.075-25.941-16.853-30.72-27.136-2.598-5.315-4.117-11.566-4.117-18.171 0-21.967 16.803-40.010 38.256-41.977l0.165-0.012c11.307-1.195 17.707 0.939 36.907 12.288 30.858 18.74 68.16 29.832 108.053 29.832 0.653 0 1.305-0.003 1.956-0.009l-0.1 0.001c99.243 0 186.197-70.187 207.488-167.467 2.773-12.757 3.755-26.112 4.949-66.304 1.621-54.315 4.565-86.912 11.264-126.080 5.077-29.696 16.64-78.336 20.565-86.613 5.803-12.203 23.595-22.827 38.229-22.827 19.627 0 38.656 16.768 41.856 36.821 0.768 4.864-0.64 14.080-4.949 32.341-14.976 63.275-21.504 117.504-21.589 178.304-0.043 42.539-3.883 68.139-15.531 103.168-36.667 107.083-129.424 185.703-242.313 201.379l-1.57 0.179c-12.079 1.37-26.080 2.151-40.263 2.151-12.053 0-23.973-0.564-35.738-1.668l1.505 0.114zM460.8 438.613l161.28-161.28h-401.664l12.544 24.32c37.803 73.259 57.771 154.837 64.213 261.973 1.195 19.968 2.219 36.267 2.261 36.267l161.365-161.28zM424.363 103.893c-10.581-3.243-23.381-15.701-26.325-25.6-6.187-20.821 0.384-37.504 24.235-61.397 13.099-13.184 17.963-16.768 31.701-23.467 22.528-11.008 34.261-13.824 58.027-13.824s35.499 2.816 58.027 13.824c13.739 6.699 18.603 10.283 31.701 23.467 18.944 18.987 26.325 32.171 26.325 47.061-0.193 23.347-19.163 42.198-42.537 42.198-3.221 0-6.358-0.358-9.373-1.036l0.284 0.054c-10.837-2.475-19.371-8.619-28.117-20.309-8.064-10.709-13.483-15.061-22.741-18.347-4.035-1.52-8.699-2.4-13.568-2.4s-9.533 0.88-13.841 2.489l0.273-0.089c-9.259 3.285-14.677 7.637-22.784 18.432-14.464 19.243-30.72 25.259-51.285 18.944z" />
<glyph unicode="&#xe91e;" glyph-name="bluetooth" d="M498.987 957.653c-10.326-3.575-18.722-10.506-24.079-19.465l-0.113-0.204-4.608-7.851-0.469-189.397-0.427-189.397-83.2 83.072c-62.976 62.933-85.035 83.925-90.837 86.528-24.405 11.008-54.272-3.755-59.349-29.269-2.005-10.155 0.256-23.979 5.12-31.147 1.92-2.816 50.048-51.797 106.965-108.843l103.424-103.68-103.424-103.68c-56.917-57.045-105.003-105.984-106.88-108.8-11.733-17.451-5.888-44.672 12.331-57.173 12.715-8.747 34.133-9.387 45.952-1.365 2.901 1.963 42.283 40.491 87.595 85.675l82.347 82.091v-186.24c0-202.752-0.427-193.237 9.6-206.421 2.517-3.285 8.107-8.107 12.416-10.624 6.656-3.883 9.813-4.608 20.651-4.608s13.995 0.683 20.48 4.565c4.352 2.603 60.245 57.259 128.341 125.44 97.152 97.28 121.387 122.453 124.245 128.939 5.632 12.843 4.736 29.483-2.176 39.723-1.877 2.816-49.963 51.755-106.837 108.8l-103.424 103.68 104.448 104.533c111.232 111.36 111.36 111.445 111.659 128.043 0.213 10.88-1.835 18.304-7.168 25.984-8.619 12.331-244.267 245.845-251.349 249.045-5.528 2.316-11.953 3.662-18.691 3.662-4.458 0-8.778-0.589-12.887-1.693l0.346 0.079zM620.8 747.947l65.28-65.28-131.413-131.413v130.987c0 72.064 0.213 130.987 0.427 130.987 0.256 0 29.824-29.397 65.707-65.28zM620.8 278.613l65.28-65.28-131.413-131.413v130.987c0 72.064 0.213 130.987 0.427 130.987 0.256 0 29.824-29.397 65.707-65.28z" />
<glyph unicode="&#xe91f;" glyph-name="bold" d="M242.987 829.568c-10.333-3.519-18.737-10.43-24.080-19.381l-0.112-0.203-4.608-7.851-0.427-350.464c-0.299-231.211 0.128-352.683 1.28-356.864 2.517-9.387 10.709-19.669 19.968-25.131l8.192-4.821h211.627c198.187 0 212.565 0.213 226.133 3.115 65.195 13.952 118.955 54.485 148.181 111.744 9.771 19.157 15.872 36.224 20.224 56.661 4.309 20.096 4.309 61.824 0 81.92-12.075 56.533-44.373 104.875-90.453 135.552l-15.061 9.984 8.491 8.747c25.856 26.539 45.781 65.067 54.357 105.131 2.261 10.496 3.115 21.845 3.115 40.96s-0.853 30.464-3.115 40.96c-12.032 56.277-44.544 105.131-89.899 135.083-32.171 21.291-59.904 31.531-95.915 35.456-25.813 2.859-368.725 2.261-377.899-0.597zM634.069 741.461c41.103-13.164 72.826-44.929 85.675-85.131l0.256-0.928c3.541-11.648 4.181-17.195 4.181-36.736s-0.64-25.088-4.181-36.736c-12.373-40.533-43.989-72.32-85.973-86.4l-11.947-4.011-323.413-0.981v256.256l321.707-1.024 13.696-4.309zM676.736 400.171c41.097-13.198 72.812-44.97 85.674-85.172l0.257-0.929c3.541-11.648 4.181-17.195 4.181-36.736s-0.64-25.088-4.181-36.736c-12.331-40.533-43.989-72.32-85.973-86.4l-11.947-4.011-366.080-0.939v256.171l364.373-0.939 13.696-4.309z" />
<glyph unicode="&#xe920;" glyph-name="book" d="M250.581 914.645c-32.455-6.104-60.479-21.971-81.639-44.386l-0.068-0.073c-16.896-17.877-27.307-36.011-35.328-61.568l-4.693-15.019v-691.2l4.693-15.019c16.256-51.797 51.371-86.912 103.168-103.168l15.019-4.693h614.4l8.192 4.821c9.259 5.461 17.451 15.744 19.968 25.131 1.152 4.181 1.579 154.24 1.28 442.155l-0.427 435.84-4.608 7.851c-5.526 9.348-14.195 16.34-24.524 19.586l-0.308 0.084c-11.605 3.499-595.712 3.2-615.125-0.341zM810.667 554.667v-277.333h-272c-295.509 0-287.104 0.256-312.704-9.387-2.702-1.147-6.693-2.596-10.746-3.907l-1.286-0.359c-0.341 0-0.469 116.907-0.213 259.84l0.469 259.84 4.779 10.24c8.448 18.133 26.624 33.109 44.459 36.608 3.883 0.768 128.64 1.493 277.163 1.621l270.080 0.171v-277.333zM810.667 128v-64.043l-548.693 0.896-10.24 4.779c-14.247 7.097-25.526 18.362-32.453 32.185l-0.187 0.412c-4.053 8.875-4.736 12.629-4.736 25.771-0.043 13.184 0.64 16.811 4.693 25.6 8.277 18.048 26.496 33.109 44.373 36.608 3.883 0.768 128.64 1.493 277.163 1.621l270.080 0.171v-64z" />
<glyph unicode="&#xe921;" glyph-name="bookmark" d="M277.291 872.832c-47.317-8.021-85.803-41.856-101.76-89.472l-4.011-11.947-0.469-355.84c-0.384-269.525-0.043-357.632 1.493-363.179 6.229-22.699 32.043-36.523 53.931-28.885 4.053 1.408 68.395 46.208 146.347 101.888l139.179 99.371 138.88-99.2c91.008-64.981 141.696-100.139 146.987-101.931 21.845-7.467 47.787 6.315 53.803 28.544 1.152 4.267 1.579 126.080 1.28 362.837l-0.469 356.395-4.011 11.947c-14.080 41.899-45.44 73.173-86.4 86.144l-13.696 4.309-231.253 0.256c-127.189 0.128-235.136-0.427-239.829-1.237zM738.56 786.731c12.737-4.346 22.574-14.21 26.792-26.666l0.088-0.299c2.261-7.808 2.517-45.739 2.133-310.613l-0.427-301.781-117.973 84.309c-72.107 51.456-120.661 85.035-124.8 86.272-3.696 1.238-7.951 1.952-12.373 1.952s-8.678-0.714-12.657-2.034l0.284 0.082c-4.139-1.237-52.693-34.816-124.8-86.272l-117.973-84.309-0.427 301.781c-0.469 339.584-1.493 313.259 12.501 327.253 13.568 13.568-2.987 12.672 242.347 12.8 190.933 0.128 219.648-0.213 227.285-2.475z" />
<glyph unicode="&#xe922;" glyph-name="activity" d="M369.451 871.68c-9.515-4.139-14.549-7.936-19.925-15.104-3.243-4.352-21.888-58.027-64.555-186.027l-59.989-179.883h-72.107c-78.336 0-82.005-0.384-93.909-9.429-3.413-2.603-8.32-8.277-10.837-12.587-3.883-6.656-4.608-9.813-4.608-20.651 0-10.965 0.683-13.952 4.821-20.992 5.461-9.344 15.744-17.451 25.259-20.011 4.224-1.152 40.021-1.621 100.864-1.28l94.336 0.469 8.192 4.821c4.48 2.645 10.368 7.851 13.056 11.563 3.584 4.907 17.152 43.435 49.024 139.008 24.235 72.704 44.459 132.181 44.928 132.181s47.616-140.373 104.789-311.893c57.131-171.52 106.155-318.251 108.971-326.016 3.84-10.752 6.827-15.915 12.544-21.632 7.536-7.793 18.085-12.631 29.765-12.631 7.316 0 14.188 1.898 20.152 5.229l-0.21-0.108c15.829 8.192 13.568 2.389 78.933 198.443l60.075 180.181 73.685 0.085c79.232 0.085 80.64 0.213 92.373 9.173 3.285 2.475 8.064 8.149 10.667 12.544 4.053 6.869 4.736 9.941 4.736 20.864 0 10.88-0.683 13.995-4.651 20.736-6.060 10.074-15.794 17.413-27.306 20.205l-0.3 0.061c-5.931 1.28-37.931 1.707-100.053 1.365l-91.349-0.555-8.491-4.352c-16-8.235-15.189-6.272-63.36-150.869-24.235-72.789-44.501-132.352-44.971-132.352s-49.493 145.963-108.971 324.395c-88.747 266.155-109.099 325.632-113.493 331.307-10.667 13.824-33.152 20.267-48.085 13.739z" />
<glyph unicode="&#xe923;" glyph-name="airplay" d="M149.291 872.832c-47.744-8.064-86.955-42.88-101.76-90.325l-4.011-12.8v-472.747l4.011-12.8c13.074-41.576 45.006-73.733 85.508-86.863l0.935-0.262c10.368-3.328 16.683-3.925 47.787-4.608 23.253-0.512 38.315-0.128 42.837 1.109 9.941 2.688 20.181 10.667 25.728 20.139 4.139 7.040 4.821 10.027 4.821 20.992 0 10.837-0.725 13.995-4.608 20.651-5.037 8.308-12.313 14.816-20.994 18.78l-0.296 0.121c-2.816 1.195-18.731 2.432-38.101 2.987-32.256 0.939-33.536 1.109-41.131 5.589-4.793 2.951-8.888 6.476-12.356 10.551l-0.060 0.073c-10.112 13.269-9.6 0.64-9.6 238.976 0 246.699-0.853 230.187 12.928 244.011 14.037 14.037-17.536 12.928 371.072 12.928s357.035 1.109 371.072-12.928c13.781-13.824 12.928 2.56 12.928-243.115 0-179.669-0.427-219.221-2.347-225.664-3.329-10.637-10.321-19.306-19.468-24.721l-0.202-0.111c-7.595-4.48-8.875-4.651-41.131-5.589-19.371-0.555-35.285-1.792-38.101-2.987-8.978-4.085-16.254-10.593-21.172-18.691l-0.119-0.21c-3.883-6.656-4.608-9.813-4.608-20.651 0-10.965 0.683-13.952 4.821-20.992 5.547-9.472 15.787-17.451 25.728-20.139 4.523-1.237 19.584-1.621 42.837-1.109 31.104 0.683 37.419 1.28 47.787 4.608 41.436 13.392 73.368 45.549 86.188 86.189l0.255 0.936 4.011 12.8v472.747l-4.011 12.8c-13.049 41.546-44.977 73.67-85.467 86.737l-0.933 0.26-13.696 4.309-359.253 0.256c-197.589 0.128-363.136-0.427-367.829-1.237zM498.347 360.149c-5.034-1.774-9.39-4.219-13.232-7.281l0.091 0.070c-3.029-2.645-54.656-63.872-114.731-136.064-89.387-107.392-109.781-132.821-112.085-139.733-7.211-21.717 4.523-45.653 26.197-53.376 5.205-1.877 47.104-2.304 226.688-2.347 247.637-0.085 230.315-0.981 244.011 12.715 12.8 12.8 16.341 35.029 7.893 49.408-1.835 3.115-52.907 65.067-113.408 137.685-83.541 100.267-111.787 133.035-117.205 136.064-8.96 5.035-23.68 6.272-34.219 2.859zM573.525 179.627l60.075-72.107-60.8-0.469c-33.451-0.213-88.149-0.213-121.6 0l-60.8 0.469 60.075 72.107c33.067 39.68 60.757 72.107 61.525 72.107s28.459-32.427 61.525-72.107z" />
<glyph unicode="&#xe924;" glyph-name="alert-circle" d="M481.28 916.352l-23.893-2.56c-80.555-8.533-159.104-40.107-228.693-91.819-25.984-19.328-71.509-64.853-91.051-90.965-106.581-142.805-124.8-327.040-48.171-486.955 23.296-48.555 50.304-86.229 91.349-127.232 41.003-41.045 78.677-68.053 127.232-91.349 159.872-76.629 344.235-58.325 487.125 48.341 25.984 19.371 71.637 65.024 91.008 91.008 126.891 170.027 126.891 396.331 0 566.357-19.371 25.941-64.981 71.552-90.88 90.795-68.053 50.603-139.733 80-222.592 91.264-18.048 2.475-78.891 4.523-91.435 3.115zM568.32 827.691c109.355-16.512 204.971-78.080 266.24-171.477 12.928-19.755 31.701-57.984 39.765-81.067 14.763-42.368 20.693-78.72 20.693-127.147 0-63.701-10.965-111.829-38.272-168.107-30.080-62.037-75.477-113.792-134.528-153.259-33.664-22.528-87.509-45.056-128.811-53.973-24.244-5.414-52.089-8.515-80.658-8.515-91.486 0-175.543 31.805-241.717 84.962l0.754-0.586c-64.555 51.712-112.981 127.573-132.395 207.317-7.936 32.555-10.411 54.272-10.411 92.16 0 63.701 10.965 111.829 38.272 168.107 45.622 92.339 124.633 162.383 220.876 195.211l2.698 0.799c30.080 9.941 54.272 14.848 93.013 18.859 13.739 1.408 67.029-0.64 84.48-3.285zM498.987 658.901c-10.333-3.519-18.737-10.43-24.080-19.381l-0.112-0.203-4.608-7.851v-196.523l5.163-8.405c2.901-4.693 8.747-10.795 13.269-13.867 20.096-13.483 47.019-7.296 60.032 13.867l5.163 8.405v196.523l-4.608 7.851c-7.531 12.997-21.374 21.6-37.227 21.6-4.641 0-9.109-0.737-13.295-2.101l0.303 0.085zM498.987 317.653c-10.326-3.575-18.722-10.506-24.079-19.465l-0.113-0.204c-3.883-6.656-4.608-9.813-4.608-20.651 0-10.965 0.683-13.952 4.821-20.992 22.101-37.632 79.573-22.443 79.573 20.992 0.001 0.080 0.001 0.175 0.001 0.269 0 16.266-9.157 30.393-22.597 37.507l-0.23 0.111c-5.855 2.608-12.687 4.126-19.873 4.126-4.586 0-9.027-0.618-13.245-1.776l0.35 0.082z" />
<glyph unicode="&#xe925;" glyph-name="alert-octagon" d="M321.707 914.731c-2.001-0.817-4.545-1.663-7.148-2.363l-0.489-0.112c-45.752-44.884-88.776-87.584-131.555-130.529l-0.498-0.5c-104.917-104.789-131.968-132.693-135.253-139.52l-4.053-8.533v-185.173c0.043-182.016 0.085-185.301 3.456-192.853 2.688-5.931 33.109-37.376 133.547-137.941 74.325-74.411 132.992-131.84 136.875-133.973l6.827-3.712h188.587c180.053 0 188.843 0.128 194.56 3.157 8.235 4.352 265.515 261.333 270.208 269.909l3.712 6.827v188.587c0 180.053-0.128 188.843-3.157 194.56-4.352 8.235-261.333 265.515-269.909 270.208l-6.827 3.712-186.027 0.384c-158.891 0.299-187.008 0-192.853-2.133zM783.787 719.787l112.213-112.213v-319.147l-224.427-224.427h-319.147l-224.427 224.427v319.147l224.427 224.427h319.147l112.213-112.213zM498.987 658.901c-10.333-3.519-18.737-10.43-24.080-19.381l-0.112-0.203-4.608-7.851v-196.523l5.163-8.405c2.901-4.693 8.747-10.795 13.269-13.867 20.096-13.483 47.019-7.296 60.032 13.867l5.163 8.405v196.523l-4.608 7.851c-7.531 12.997-21.374 21.6-37.227 21.6-4.641 0-9.109-0.737-13.295-2.101l0.303 0.085zM498.987 317.653c-10.326-3.575-18.722-10.506-24.079-19.465l-0.113-0.204c-3.883-6.656-4.608-9.813-4.608-20.651 0-10.965 0.683-13.952 4.821-20.992 22.101-37.632 79.573-22.443 79.573 20.992 0.001 0.080 0.001 0.175 0.001 0.269 0 16.266-9.157 30.393-22.597 37.507l-0.23 0.111c-5.855 2.608-12.687 4.126-19.873 4.126-4.586 0-9.027-0.618-13.245-1.776l0.35 0.082z" />
<glyph unicode="&#xe926;" glyph-name="alert-triangle" d="M479.872 874.624c-28.245-7.424-57.643-28.117-73.472-51.797-12.971-19.371-367.061-611.413-371.541-621.269-6.97-15.263-11.034-33.106-11.034-51.898 0-34.563 13.744-65.915 36.066-88.89l-0.030 0.031c13.952-14.080 26.837-22.955 42.88-29.525 25.643-10.496 2.901-9.941 409.472-9.941 408.32 0 382.976-0.64 409.429 10.155 31.54 13.594 56.095 38.385 69.058 69.247l0.318 0.854c5.732 14.102 9.058 30.46 9.058 47.596 0 19.548-4.329 38.085-12.080 54.705l0.334-0.797c-5.163 10.923-360.789 605.227-372.181 621.995-14.848 21.888-45.141 42.581-72.661 49.621-17.749 4.523-46.165 4.48-63.616-0.085zM529.963 789.547c3.755-1.707 9.088-5.504 11.819-8.363 6.656-7.040 369.109-612.267 371.285-619.904 1.042-3.509 1.641-7.541 1.641-11.713 0-18.566-11.87-34.36-28.436-40.206l-0.298-0.092c-6.784-2.304-49.835-2.603-373.845-2.603-246.997 0-368.256 0.597-372.565 1.792-15.829 4.395-30.336 23.040-30.336 38.955 0 4.352 0.768 10.581 1.707 13.867 2.176 7.68 364.587 612.779 371.243 619.861 7.424 7.851 16.896 11.52 29.824 11.52 7.083 0 13.568-1.109 17.963-3.115zM498.987 616.235c-10.333-3.519-18.737-10.43-24.080-19.381l-0.112-0.203-4.608-7.851v-196.523l5.163-8.405c2.901-4.693 8.747-10.795 13.269-13.867 20.096-13.483 47.019-7.296 60.032 13.867l5.163 8.405v196.523l-4.608 7.851c-7.531 12.997-21.374 21.6-37.227 21.6-4.641 0-9.109-0.737-13.295-2.101l0.303 0.085zM498.987 274.987c-10.326-3.575-18.722-10.506-24.079-19.465l-0.113-0.204c-3.883-6.656-4.608-9.813-4.608-20.651 0-10.965 0.683-13.952 4.821-20.992 22.101-37.632 79.573-22.443 79.573 20.992 0.001 0.080 0.001 0.175 0.001 0.269 0 16.266-9.157 30.393-22.597 37.507l-0.23 0.111c-5.855 2.608-12.687 4.126-19.873 4.126-4.586 0-9.027-0.618-13.245-1.776l0.35 0.082z" />
<glyph unicode="&#xe927;" glyph-name="cloud" d="M360.107 830.976c-22.352-1.847-42.508-4.793-62.243-8.889l3.277 0.569c-72.149-15.104-147.925-58.112-197.376-112-53.333-58.069-85.931-124.629-99.797-203.861-4.224-24.149-4.224-93.44 0-117.589 19.371-110.635 77.184-200.619 167.936-261.461 37.077-24.832 90.453-46.891 135.296-55.936 38.869-7.808 47.531-8.021 277.333-7.424l216.747 0.597 17.067 3.883c53.248 12.117 95.616 35.285 131.797 72.149 35.84 36.48 57.899 77.909 68.949 129.493 5.547 25.856 5.547 73.131 0 98.987-17.408 81.237-66.645 144.512-141.013 181.333-32.555 16.128-69.077 23.936-119.936 25.6l-12.416 0.427-7.424 18.219c-50.048 122.965-164.267 212.053-298.069 232.576-17.408 2.688-64.853 4.651-80.128 3.328zM414.379 744.832c89.676-9.795 166.484-57.8 214.777-127.147l0.647-0.981c15.104-21.973 29.568-51.883 38.571-79.701 8.789-27.093 13.696-34.688 26.965-41.728 6.4-3.371 10.496-3.755 52.181-4.821 30.933-0.811 48.939-2.048 56.96-3.84 59.098-14.019 105.796-56.738 125.155-112.272l0.371-1.222c4.267-12.587 8.661-39.467 8.661-53.12 0-13.739-4.395-40.576-8.704-53.12-20.267-59.179-68.309-101.675-128.981-114.005-16.939-3.456-21.845-3.541-225.323-3.541-224.939 0-228.523 0.128-264.448 9.216-130.779 33.758-225.835 150.67-225.835 289.783 0 0.138 0 0.276 0 0.414v-0.022c0.323 78.965 31.131 150.673 81.256 204.019l-0.146-0.157c61.824 66.475 157.739 102.144 247.893 92.245z" />
<glyph unicode="&#xe928;" glyph-name="cloud-drizzle" d="M355.84 958.805c-63.531-4.181-129.835-26.965-184.107-63.232-22.902-14.937-42.807-31.426-60.663-49.907l-0.095-0.099c-46.465-47.073-80.988-106.043-98.585-171.927l-0.615-2.708c-7.4-28.597-11.648-61.427-11.648-95.249 0-25.947 2.5-51.31 7.273-75.861l-0.403 2.491c16.085-81.109 58.88-156.885 119.168-210.816 21.12-18.944 31.019-24.363 44.501-24.363 28.843 0 48.512 26.795 40.32 54.912-2.517 8.704-4.523 11.136-25.6 30.976-11.288 10.545-21.817 21.343-31.824 32.614l-0.432 0.495c-40.088 48.409-65.134 110.558-67.274 178.484l-0.011 0.46c-1.92 51.84 6.528 92.245 29.269 139.776 17.493 36.608 34.432 60.16 62.464 86.827 53.459 51.202 126.126 82.724 206.155 82.724 46.386 0 90.299-10.59 129.452-29.483l-1.783 0.776c75.989-36.181 130.475-98.731 156.757-179.968 9.003-27.861 13.781-35.371 27.179-42.453 6.443-3.413 10.368-3.755 52.181-4.736 57.173-1.408 67.797-3.499 98.603-19.413 98.688-50.944 122.496-180.523 48.768-264.96-12.757-14.592-27.691-26.027-48.512-37.163-20.821-11.179-26.197-15.829-31.659-27.349-2.35-5.074-3.721-11.013-3.721-17.271 0-12.191 5.201-23.167 13.506-30.83l0.029-0.026c13.824-13.099 31.403-14.763 52.181-4.907 29.9 14.266 55.324 33.1 76.53 55.91l0.142 0.154c43.397 45.356 70.11 106.986 70.11 174.855 0 20.136-2.351 39.722-6.795 58.5l0.343-1.718c-11.563 49.749-32.597 87.595-68.864 123.861-50.944 50.901-112.469 75.819-187.221 75.819-12.971 0-15.403 0.427-16.299 2.987-5.722 14.545-9.154 22.519-12.687 30.437l2.489-6.245c-27.819 64.939-78.72 125.099-139.691 165.163-59.716 39.736-133.095 63.404-212.002 63.404-9.477 0-18.873-0.341-28.179-1.013l1.248 0.072zM328.32 445.568c-10.333-3.519-18.737-10.43-24.080-19.381l-0.112-0.203-4.608-7.851v-111.189l5.163-8.405c7.549-12.6 21.13-20.904 36.651-20.904s29.102 8.304 36.543 20.711l0.107 0.193 5.163 8.405v111.189l-4.608 7.851c-7.531 12.997-21.374 21.6-37.227 21.6-4.641 0-9.109-0.737-13.295-2.101l0.303 0.085zM669.653 445.568c-10.333-3.519-18.737-10.43-24.080-19.381l-0.112-0.203-4.608-7.851v-111.189l5.163-8.405c7.549-12.6 21.13-20.904 36.651-20.904s29.102 8.304 36.543 20.711l0.107 0.193 5.163 8.405v111.189l-4.608 7.851c-7.531 12.997-21.374 21.6-37.227 21.6-4.641 0-9.109-0.737-13.295-2.101l0.303 0.085zM498.987 360.235c-10.333-3.519-18.737-10.43-24.080-19.381l-0.112-0.203-4.608-7.851v-111.189l5.163-8.405c7.549-12.6 21.13-20.904 36.651-20.904s29.102 8.304 36.543 20.711l0.107 0.193 5.163 8.405v111.189l-4.608 7.851c-7.531 12.997-21.374 21.6-37.227 21.6-4.641 0-9.109-0.737-13.295-2.101l0.303 0.085zM328.32 189.568c-10.333-3.519-18.737-10.43-24.080-19.381l-0.112-0.203-4.608-7.851v-111.189l5.163-8.405c7.549-12.6 21.13-20.904 36.651-20.904s29.102 8.304 36.543 20.711l0.107 0.193 5.163 8.405v111.189l-4.608 7.851c-7.531 12.997-21.374 21.6-37.227 21.6-4.641 0-9.109-0.737-13.295-2.101l0.303 0.085zM669.653 189.568c-10.333-3.519-18.737-10.43-24.080-19.381l-0.112-0.203-4.608-7.851v-111.189l5.163-8.405c7.549-12.6 21.13-20.904 36.651-20.904s29.102 8.304 36.543 20.711l0.107 0.193 5.163 8.405v111.189l-4.608 7.851c-7.531 12.997-21.374 21.6-37.227 21.6-4.641 0-9.109-0.737-13.295-2.101l0.303 0.085zM498.987 104.235c-10.333-3.519-18.737-10.43-24.080-19.381l-0.112-0.203-4.608-7.851v-111.189l5.163-8.405c7.549-12.6 21.13-20.904 36.651-20.904s29.102 8.304 36.543 20.711l0.107 0.193 5.163 8.405v111.189l-4.608 7.851c-7.531 12.997-21.374 21.6-37.227 21.6-4.641 0-9.109-0.737-13.295-2.101l0.303 0.085z" />
<glyph unicode="&#xe929;" glyph-name="cloud-lightning" d="M360.96 958.976c-32.204-2.233-62.168-7.773-90.832-16.326l2.939 0.753c-159.18-49.194-272.864-194.952-273.067-367.293v-0.024c0.045-126.262 61.028-238.271 155.134-308.22l1.026-0.729c18.347-13.568 40.149-26.923 49.28-30.123 32.256-11.392 64.555 21.504 53.077 54.059-4.053 11.52-9.941 17.792-25.6 27.221-23.348 14.040-43.504 30.082-61.332 48.402l-0.065 0.067c-131.669 132.907-109.141 352.768 46.933 457.515 92.672 62.208 215.936 66.475 313.088 10.837 29.922-17.212 55.434-38.225 76.975-62.804l0.294-0.342c25.983-30.018 46.348-65.701 58.965-104.862l0.598-2.146c8.789-27.051 13.696-34.645 26.965-41.685 6.443-3.413 10.368-3.755 52.181-4.736 48.085-1.195 59.221-2.688 81.237-10.965 38.4-14.464 73.387-45.952 91.989-82.773 12.757-25.216 18.987-56.491 17.323-86.955-0.555-10.837-2.261-24.32-3.712-29.952-15.701-59.819-60.971-107.435-116.907-122.923-26.411-7.296-30.037-8.96-37.973-17.835-15.573-17.323-15.189-40.917 0.981-57.771 6.656-6.955 12.075-9.899 22.443-12.245 6.571-1.451 10.709-1.109 23.637 1.92 85.467 20.699 153.152 82.002 182.383 161.841l0.572 1.786c9.186 25.339 14.497 54.584 14.497 85.070 0 20.983-2.516 41.378-7.263 60.9l0.361-1.757c-21.333 92.331-95.531 167.040-188.117 189.483-16.555 4.011-45.824 7.339-70.955 8.107l-12.544 0.384-7.211 17.92c-18.83 45.821-44.966 84.988-77.366 117.986l0.054-0.055c-61.824 63.957-137.771 103.125-223.189 115.029-17.749 2.475-61.995 4.352-76.8 3.243zM540.501 530.731c-4.459-1.765-8.295-3.815-11.858-6.236l0.21 0.135c-5.803-4.096-181.632-266.496-185.216-276.309-6.869-19.029 2.688-42.368 21.163-51.456l8.107-4.011 186.88-1.707-64.896-97.28c-35.669-53.504-65.621-99.968-66.517-103.253-5.248-18.688 2.901-38.912 19.584-48.725 9.131-5.333 23.296-7.168 32.64-4.224 16.171 5.12 14.763 3.285 108.416 143.744 48.939 73.344 90.112 136.789 91.52 140.928 6.784 19.883-4.139 42.923-24.619 52.011-3.584 1.579-28.757 2.347-98.261 2.987l-93.44 0.853 64.853 97.28c35.712 53.504 65.664 99.968 66.56 103.253 9.259 32.896-23.381 63.659-55.125 52.011z" />
<glyph unicode="&#xe92a;" glyph-name="cloud-off" d="M29.653 957.568c-10.333-3.519-18.737-10.43-24.080-19.381l-0.112-0.203c-3.925-6.656-4.608-9.771-4.565-20.651 0-9.045 0.939-14.549 3.157-18.773 1.707-3.285 34.347-37.248 72.448-75.52l69.333-69.547-6.784-5.547c-35.521-28.854-65.441-62.89-89.040-101.232l-0.987-1.723c-13.947-23.186-26.236-49.963-35.468-78.125l-0.798-2.814c-12.373-39.211-11.733-33.323-12.331-110.976-0.555-65.963-0.341-71.979 2.816-86.187 18.603-83.2 64.085-158.848 127.189-211.541 57.713-48.911 130.74-81.418 210.975-89.509l1.633-0.133c13.653-1.323 85.973-1.749 238.080-1.365 203.179 0.512 219.477 0.768 232.832 3.627l14.336 3.115 64.171-63.957c35.243-35.157 66.816-65.365 70.101-67.072 4.224-2.219 9.728-3.157 18.773-3.157 11.008-0.043 13.952 0.64 20.992 4.779 20.309 11.947 27.605 38.4 15.915 57.984-2.347 3.925-217.6 220.416-478.379 481.067-466.048 465.792-474.325 473.941-483.413 476.587-10.965 3.2-17.237 3.243-26.795 0.256zM397.653 828.459c-16.811-7.595-26.155-21.504-26.283-39.125-0.085-12.971 3.584-21.248 13.781-31.061 8.448-8.107 12.075-9.387 38.827-13.44 26.283-3.925 39.296-7.040 59.008-13.952 42.667-14.976 81.536-40.192 115.456-74.965 35.413-36.267 56.832-73.856 73.088-128.213 4.992-16.811 11.819-26.069 23.808-32.427 6.4-3.371 10.496-3.755 51.328-4.779 24.405-0.64 48.512-2.005 53.547-3.029 62.592-12.971 112.853-57.984 130.688-117.12 11.307-37.461 10.283-70.187-3.456-111.403-6.784-20.395-7.040-24.32-2.389-36.864 4.565-12.16 15.061-21.931 27.989-25.984 3.305-1.394 7.147-2.205 11.179-2.205 2.888 0 5.678 0.416 8.315 1.191l-0.208-0.052c19.925 4.181 28.757 14.464 38.656 44.8 10.069 30.976 12.117 44.501 12.117 81.024 0 35.371-1.707 46.933-11.392 77.653-28.117 88.917-105.173 156.203-198.485 173.355-11.905 1.878-26.206 3.269-40.714 3.858l-0.758 0.024-26.155 1.109-6.443 16.384c-49.365 125.611-167.68 217.301-304.811 236.288-22.784 3.157-27.648 3.029-36.693-1.067zM478.72 420.693l271.36-271.36h-195.797c-167.595 0-198.485 0.384-214.741 2.645-84.503 11.561-156.598 56.987-203.296 121.906l-0.608 0.889c-21.589 30.080-41.941 76.245-49.237 111.872-22.997 111.787 18.304 224.683 108.501 296.704 5.931 4.736 11.136 8.619 11.605 8.661 0.469 0 122.965-122.069 272.213-271.317z" />
<glyph unicode="&#xe92b;" glyph-name="cloud-rain" d="M355.84 958.805c-63.531-4.181-129.835-26.965-184.107-63.232-22.902-14.937-42.807-31.426-60.663-49.907l-0.095-0.099c-46.465-47.073-80.988-106.043-98.585-171.927l-0.615-2.708c-7.4-28.597-11.648-61.427-11.648-95.249 0-25.947 2.5-51.31 7.273-75.861l-0.403 2.491c16.085-81.109 58.88-156.885 119.168-210.816 21.12-18.944 31.019-24.363 44.501-24.363 28.843 0 48.512 26.795 40.32 54.912-2.517 8.704-4.523 11.136-25.6 30.976-11.288 10.545-21.817 21.343-31.824 32.614l-0.432 0.495c-40.088 48.409-65.134 110.558-67.274 178.484l-0.011 0.46c-1.92 51.84 6.528 92.245 29.269 139.776 17.493 36.608 34.432 60.16 62.464 86.827 53.459 51.202 126.126 82.724 206.155 82.724 46.386 0 90.299-10.59 129.452-29.483l-1.783 0.776c75.989-36.181 130.475-98.731 156.757-179.968 9.003-27.861 13.781-35.371 27.179-42.453 6.443-3.413 10.368-3.755 52.181-4.736 57.173-1.408 67.797-3.499 98.603-19.413 98.688-50.944 122.496-180.523 48.768-264.96-12.757-14.592-27.691-26.027-48.512-37.163-20.821-11.179-26.197-15.829-31.659-27.349-2.35-5.074-3.721-11.013-3.721-17.271 0-12.191 5.201-23.167 13.506-30.83l0.029-0.026c13.824-13.099 31.403-14.763 52.181-4.907 29.9 14.266 55.324 33.1 76.53 55.91l0.142 0.154c43.397 45.356 70.11 106.986 70.11 174.855 0 20.136-2.351 39.722-6.795 58.5l0.343-1.718c-11.563 49.749-32.597 87.595-68.864 123.861-50.944 50.901-112.469 75.819-187.221 75.819-12.971 0-15.403 0.427-16.299 2.987-5.722 14.545-9.154 22.519-12.687 30.437l2.489-6.245c-27.819 64.939-78.72 125.099-139.691 165.163-59.716 39.736-133.095 63.404-212.002 63.404-9.477 0-18.873-0.341-28.179-1.013l1.248 0.072zM328.32 445.568c-10.333-3.519-18.737-10.43-24.080-19.381l-0.112-0.203-4.608-7.851v-367.189l5.163-8.405c7.549-12.6 21.13-20.904 36.651-20.904s29.102 8.304 36.543 20.711l0.107 0.193 5.163 8.405v367.189l-4.608 7.851c-7.531 12.997-21.374 21.6-37.227 21.6-4.641 0-9.109-0.737-13.295-2.101l0.303 0.085zM669.653 445.568c-10.333-3.519-18.737-10.43-24.080-19.381l-0.112-0.203-4.608-7.851v-367.189l5.163-8.405c7.549-12.6 21.13-20.904 36.651-20.904s29.102 8.304 36.543 20.711l0.107 0.193 5.163 8.405v367.189l-4.608 7.851c-7.531 12.997-21.374 21.6-37.227 21.6-4.641 0-9.109-0.737-13.295-2.101l0.303 0.085zM498.987 360.235c-10.333-3.519-18.737-10.43-24.080-19.381l-0.112-0.203-4.608-7.851v-367.189l5.163-8.405c7.549-12.6 21.13-20.904 36.651-20.904s29.102 8.304 36.543 20.711l0.107 0.193 5.163 8.405v367.189l-4.608 7.851c-7.531 12.997-21.374 21.6-37.227 21.6-4.641 0-9.109-0.737-13.295-2.101l0.303 0.085z" />
<glyph unicode="&#xe92c;" glyph-name="cloud-snow" d="M355.84 916.139c-63.531-4.181-129.835-26.965-184.107-63.232-22.902-14.937-42.807-31.426-60.663-49.907l-0.095-0.099c-46.465-47.073-80.988-106.043-98.585-171.927l-0.615-2.708c-7.4-28.597-11.648-61.427-11.648-95.249 0-25.947 2.5-51.31 7.273-75.861l-0.403 2.491c16.085-81.109 58.88-156.885 119.168-210.816 21.12-18.944 31.019-24.363 44.501-24.363 28.843 0 48.512 26.795 40.32 54.912-2.517 8.704-4.523 11.136-25.6 30.976-11.288 10.545-21.817 21.343-31.824 32.614l-0.432 0.495c-40.088 48.409-65.134 110.558-67.274 178.484l-0.011 0.46c-1.92 51.84 6.528 92.245 29.269 139.776 17.493 36.608 34.432 60.16 62.464 86.827 53.459 51.202 126.126 82.724 206.155 82.724 46.386 0 90.299-10.59 129.452-29.483l-1.783 0.776c75.989-36.181 130.475-98.731 156.757-179.968 9.003-27.861 13.781-35.371 27.179-42.453 6.443-3.413 10.368-3.755 52.181-4.736 57.173-1.408 67.797-3.499 98.603-19.413 98.688-50.944 122.496-180.523 48.768-264.96-12.757-14.592-27.691-26.027-48.512-37.163-20.821-11.179-26.197-15.829-31.659-27.349-2.35-5.074-3.721-11.013-3.721-17.271 0-12.191 5.201-23.167 13.506-30.83l0.029-0.026c13.824-13.099 31.403-14.763 52.181-4.907 29.9 14.266 55.324 33.1 76.53 55.91l0.142 0.154c43.397 45.356 70.11 106.986 70.11 174.855 0 20.136-2.351 39.722-6.795 58.5l0.343-1.718c-11.563 49.749-32.597 87.595-68.864 123.861-50.944 50.901-112.469 75.819-187.221 75.819-12.971 0-15.403 0.427-16.299 2.987-5.722 14.545-9.154 22.519-12.687 30.437l2.489-6.245c-27.819 64.939-78.72 125.099-139.691 165.163-59.716 39.736-133.095 63.404-212.002 63.404-9.477 0-18.873-0.341-28.179-1.013l1.248 0.072zM328.32 317.653c-10.326-3.575-18.722-10.506-24.079-19.465l-0.113-0.204c-3.883-6.656-4.608-9.813-4.608-20.651 0-10.965 0.683-13.952 4.821-20.992 22.101-37.632 79.573-22.443 79.573 20.992 0.001 0.080 0.001 0.175 0.001 0.269 0 16.266-9.157 30.393-22.597 37.507l-0.23 0.111c-5.855 2.608-12.687 4.126-19.873 4.126-4.586 0-9.027-0.618-13.245-1.776l0.35 0.082zM669.653 317.653c-10.326-3.575-18.722-10.506-24.079-19.465l-0.113-0.204c-3.883-6.656-4.608-9.813-4.608-20.651 0-10.965 0.683-13.952 4.821-20.992 22.101-37.632 79.573-22.443 79.573 20.992 0.001 0.080 0.001 0.175 0.001 0.269 0 16.266-9.157 30.393-22.597 37.507l-0.23 0.111c-5.855 2.608-12.687 4.126-19.873 4.126-4.586 0-9.027-0.618-13.245-1.776l0.35 0.082zM498.987 232.32c-10.326-3.575-18.722-10.506-24.079-19.465l-0.113-0.204c-3.883-6.656-4.608-9.813-4.608-20.651 0-10.965 0.683-13.952 4.821-20.992 22.101-37.632 79.573-22.443 79.573 20.992 0.001 0.080 0.001 0.175 0.001 0.269 0 16.266-9.157 30.393-22.597 37.507l-0.23 0.111c-5.855 2.608-12.687 4.126-19.873 4.126-4.586 0-9.027-0.618-13.245-1.776l0.35 0.082zM328.32 146.987c-10.326-3.575-18.722-10.506-24.079-19.465l-0.113-0.204c-3.883-6.656-4.608-9.813-4.608-20.651 0-10.965 0.683-13.952 4.821-20.992 22.101-37.632 79.573-22.443 79.573 20.992 0.001 0.080 0.001 0.175 0.001 0.269 0 16.266-9.157 30.393-22.597 37.507l-0.23 0.111c-5.855 2.608-12.687 4.126-19.873 4.126-4.586 0-9.027-0.618-13.245-1.776l0.35 0.082zM669.653 146.987c-10.326-3.575-18.722-10.506-24.079-19.465l-0.113-0.204c-3.883-6.656-4.608-9.813-4.608-20.651 0-10.965 0.683-13.952 4.821-20.992 22.101-37.632 79.573-22.443 79.573 20.992 0.001 0.080 0.001 0.175 0.001 0.269 0 16.266-9.157 30.393-22.597 37.507l-0.23 0.111c-5.855 2.608-12.687 4.126-19.873 4.126-4.586 0-9.027-0.618-13.245-1.776l0.35 0.082zM498.987 61.653c-10.326-3.575-18.722-10.506-24.079-19.465l-0.113-0.204c-3.883-6.656-4.608-9.813-4.608-20.651 0-10.965 0.683-13.952 4.821-20.992 22.101-37.632 79.573-22.443 79.573 20.992 0.001 0.080 0.001 0.175 0.001 0.269 0 16.266-9.157 30.393-22.597 37.507l-0.23 0.111c-5.855 2.608-12.687 4.126-19.873 4.126-4.586 0-9.027-0.618-13.245-1.776l0.35 0.082z" />
<glyph unicode="&#xe92d;" glyph-name="code" d="M325.973 743.765c-6.613-2.261-25.771-20.693-140.501-135.125-75.819-75.648-134.784-135.765-137.387-140.16-3.883-6.485-4.565-9.643-4.565-20.48s0.683-13.995 4.565-20.48c5.803-9.685 266.368-269.952 274.261-273.877 19.413-9.771 44.629-1.92 55.979 17.365 4.139 7.040 4.821 9.984 4.779 20.992 0 9.045-0.939 14.549-3.157 18.773-1.707 3.285-55.083 58.027-118.571 121.6l-115.413 115.627 115.413 115.627c63.488 63.573 116.864 118.315 118.571 121.6 2.219 4.224 3.157 9.728 3.157 18.773 0.043 10.88-0.64 13.995-4.565 20.651-7.621 13.107-21.599 21.779-37.602 21.779-5.372 0-10.515-0.977-15.262-2.763l0.299 0.099zM668.587 744.064c-9.472-3.456-17.92-10.581-23.125-19.413-3.925-6.656-4.608-9.771-4.565-20.651 0-9.045 0.939-14.549 3.157-18.773 1.707-3.285 55.083-58.027 118.571-121.6l115.413-115.627-115.413-115.627c-63.488-63.573-116.864-118.315-118.571-121.6-2.219-4.224-3.157-9.728-3.157-18.773-0.043-11.008 0.64-13.952 4.779-20.992 5.547-9.472 15.744-17.451 25.728-20.181 8.619-2.304 22.613-1.024 30.251 2.816 7.893 3.925 268.459 264.192 274.261 273.877 3.883 6.485 4.565 9.643 4.565 20.48s-0.683 13.995-4.565 20.48c-2.603 4.395-61.525 64.512-137.387 140.16-121.003 120.661-133.589 132.693-141.227 135.253-4.345 1.606-9.364 2.535-14.6 2.535-5.055 0-9.908-0.866-14.418-2.458l0.303 0.093z" />
<glyph unicode="&#xe92e;" glyph-name="codepen" d="M493.355 912.64c-13.696-7.125-433.152-280.491-438.656-285.909-3.1-3.203-5.769-6.852-7.895-10.834l-0.126-0.259c-2.987-6.016-3.2-14.379-3.627-164.224-0.384-118.485 0-159.701 1.536-165.291 1.28-4.693 4.907-10.453 9.856-15.616 5.504-5.76 70.741-49.109 218.837-145.323 116.011-75.435 215.040-139.264 220.032-141.824 6.741-3.499 11.52-4.693 18.688-4.693s11.947 1.195 18.688 4.693c4.992 2.603 104.021 66.389 220.032 141.824 146.688 95.317 213.333 139.563 218.752 145.237 4.352 4.523 8.661 11.093 9.813 14.976 2.901 9.643 2.944 315.349 0.085 324.992-3.029 10.069-12.16 19.371-31.147 31.616l-212.949 138.539c-107.605 70.059-199.723 129.493-204.672 132.096-5.081 2.959-11.184 4.705-17.695 4.705-0.319 0-0.638-0.004-0.955-0.013l0.047 0.001c-0.263 0.007-0.573 0.011-0.884 0.011-6.533 0-12.658-1.746-17.934-4.796l0.173 0.092zM469.333 707.84v-88.363l-83.541-58.453c-12.208-9.263-40.172-28.793-68.338-48.049l-17.507-11.301c-2.091-0.768-134.357 90.197-136.192 93.696-0.555 1.024 300.715 199.125 305.152 200.661 0.213 0.043 0.427-39.637 0.427-88.192zM747.52 670.763c60.544-39.253 111.019-72.277 112.171-73.301 1.621-1.451-13.824-13.099-64.811-48.725-36.821-25.771-68.139-46.848-69.547-46.848-1.451 0-40.405 26.453-86.613 58.795l-84.053 58.795v176.555l192.853-125.269zM581.589 496.64c31.417-21.462 53.733-37.454 75.789-53.776l-7.266 5.136c0-0.469-31.061-22.571-69.035-49.067l-69.077-48.256-69.077 48.256c-37.973 26.496-69.035 48.597-69.035 49.067 0.043 1.195 137.045 97.024 138.24 96.683 0.512-0.128 31.787-21.76 69.461-48.043zM178.048 480.427c24.96-17.365 45.355-31.957 45.397-32.427 0-0.768-78.208-55.851-90.539-63.744l-4.907-3.157v66.816c0 56.32 0.384 66.603 2.347 65.451 28.671-19.193 44.209-30.033 59.663-40.984l-11.962 8.045zM895.616 414.592l-0.469-33.365-47.317 32.939c-25.984 18.133-47.275 33.365-47.275 33.835 0.043 0.469 21.333 15.659 47.317 33.749l47.275 32.896 0.469-33.323c0.256-18.347 0.256-48.341 0-66.731zM385.536 335.061l83.755-58.581v-88.277l0.043-88.32-16.64 10.795c-261.643 164.18-355.642 226.113-449.387 288.399l161.046-100.623c-1.536 1.451 14.336 13.397 65.664 49.323 37.291 26.069 68.651 47.019 69.76 46.592s39.723-27.136 85.76-59.307zM795.093 346.965c50.133-35.072 66.091-47.061 64.555-48.469-1.109-1.067-60.416-39.808-131.755-86.101s-139.52-90.539-151.467-98.347l-21.76-14.123 0.043 88.277v88.277l84.864 59.349c46.677 32.597 85.76 58.965 86.869 58.539s32-21.76 68.651-47.403z" />
<glyph unicode="&#xe92f;" glyph-name="codesandbox" d="M492.416 915.541c-22.912-3.584-27.264-5.675-113.365-54.955-36.096-20.608-68.651-38.571-72.448-39.893-5.912-2.536-11.010-5.537-15.664-9.089l0.176 0.129c-4.779-3.584-40.747-24.832-80-47.189-40.704-23.211-75.179-44.032-80.299-48.512-21.077-18.347-31.744-34.987-40.619-63.232l-4.011-12.8v-384l4.011-12.8c10.069-32.256 29.056-57.6 55.765-74.496 4.651-2.944 38.443-22.443 75.051-43.307 36.608-20.907 68.992-40.107 71.979-42.667 3.405-2.835 7.362-5.158 11.665-6.777l0.281-0.093c3.584-1.152 36.096-19.029 72.235-39.68 72.491-41.429 86.912-48.853 105.813-54.187 24.747-6.997 28.459-7.552 37.12-5.504 35.755 8.363 42.667 11.605 126.72 59.691 36.139 20.651 68.651 38.528 72.235 39.68 4.584 1.711 8.542 4.035 12.013 6.923l-0.066-0.054c2.987 2.56 35.371 21.76 71.979 42.667 36.608 20.864 70.4 40.363 75.051 43.307 19.94 12.536 35.737 30.004 45.927 50.726l0.324 0.73c14.464 29.44 13.525 13.312 13.525 227.84 0 177.621-0.213 191.019-3.072 201.387-7.765 28.16-20.053 47.915-41.557 66.645-5.12 4.48-39.595 25.301-80.299 48.512-39.253 22.357-75.221 43.605-80 47.189-4.478 3.423-9.576 6.424-15.018 8.779l-0.47 0.181c-3.797 1.323-36.736 19.541-73.301 40.405-72.064 41.259-85.035 47.957-100.395 51.883-10.126 2.232-21.757 3.511-33.686 3.511-6.2 0-12.319-0.345-18.339-1.018l0.74 0.067zM524.331 829.739c6.997-2.219 90.027-49.109 90.069-50.901 0-1.707-99.413-58.624-102.4-58.624s-102.4 56.917-102.4 58.624c0.043 1.792 83.072 48.683 90.069 50.901 3.499 1.109 9.045 2.005 12.331 2.005s8.832-0.896 12.331-2.005zM404.011 682.411c10.889-7.272 40.329-24.244 70.005-40.847l20.065-10.311c5.198-2.531 11.308-4.011 17.764-4.011 0.055 0 0.109 0 0.164 0h-0.008c0.046 0 0.101 0 0.156 0 6.456 0 12.566 1.48 18.010 4.119l-0.246-0.108c4.693 2.219 45.312 25.259 90.24 51.285l81.707 47.232 107.221-61.141-147.2-85.163c-80.939-46.805-148.395-85.12-149.888-85.12s-68.949 38.315-149.888 85.12l-147.2 85.12 53.376 30.507c29.397 16.768 53.589 30.507 53.803 30.507s37.077-21.205 81.92-47.189zM321.451 508.587l147.755-85.333 0.085-170.24c0-93.653-0.512-170.197-1.237-170.155-0.683 0.085-24.32 13.355-52.48 29.525l-51.2 29.397-0.853 102.357-0.853 102.315-4.011 8.107c-2.825 5.275-6.311 9.781-10.424 13.626l-0.030 0.027c-3.584 3.029-44.971 27.776-92.032 54.912l-85.504 49.408v61.269c0 35.541 0.64 61.013 1.536 60.672 0.853-0.299 68.011-38.955 149.248-85.888zM853.333 533.632v-61.099l-85.504-49.408c-47.061-27.136-88.448-51.883-92.032-54.912-4.142-3.872-7.628-8.378-10.318-13.377l-0.136-0.276-4.011-8.107-0.853-102.315-0.853-102.357-51.2-29.397c-28.16-16.171-51.755-29.44-52.48-29.525-0.725-0.043-1.237 76.501-1.237 170.155l0.085 170.24 147.968 85.632c-17.381-7.356 31.404 21.081 80.372 49.234l68.919 36.526c0.725 0.085 1.28-27.392 1.28-61.013zM224.512 342.869l51.968-30.037v-121.131l-5.547 3.371c-3.029 1.835-22.784 13.184-43.819 25.216-23.211 13.227-40.832 24.448-44.8 28.544-10.752 11.093-11.648 16.725-11.648 74.027 0 27.52 0.427 50.048 0.939 50.048s24.32-13.525 52.907-30.037zM853.333 322.859c0-57.301-0.896-62.933-11.648-74.027-3.968-4.096-21.589-15.317-44.8-28.544-21.035-12.032-40.747-23.381-43.819-25.216l-5.547-3.371v121.173l51.627 29.952c9.447 5.997 26.742 15.95 44.228 25.602l8.679 4.393c0.725 0.043 1.28-22.443 1.28-49.963z" />
<glyph unicode="&#xe930;" glyph-name="coffee" d="M242.987 957.568c-10.333-3.519-18.737-10.43-24.080-19.381l-0.112-0.203-4.608-7.851v-153.856l5.163-8.405c7.549-12.6 21.13-20.904 36.651-20.904s29.102 8.304 36.543 20.711l0.107 0.193 5.163 8.405v153.856l-4.608 7.851c-7.531 12.997-21.374 21.6-37.227 21.6-4.641 0-9.109-0.737-13.295-2.101l0.303 0.085zM413.653 957.568c-10.333-3.519-18.737-10.43-24.080-19.381l-0.112-0.203-4.608-7.851v-153.856l5.163-8.405c7.549-12.6 21.13-20.904 36.651-20.904s29.102 8.304 36.543 20.711l0.107 0.193 5.163 8.405v153.856l-4.608 7.851c-7.531 12.997-21.374 21.6-37.227 21.6-4.641 0-9.109-0.737-13.295-2.101l0.303 0.085zM584.32 957.568c-10.333-3.519-18.737-10.43-24.080-19.381l-0.112-0.203-4.608-7.851v-153.856l5.163-8.405c7.549-12.6 21.13-20.904 36.651-20.904s29.102 8.304 36.543 20.711l0.107 0.193 5.163 8.405v153.856l-4.608 7.851c-7.531 12.997-21.374 21.6-37.227 21.6-4.641 0-9.109-0.737-13.295-2.101l0.303 0.085zM72.32 658.901c-10.333-3.519-18.737-10.43-24.080-19.381l-0.112-0.203-4.608-7.851v-211.627c0-198.187 0.213-212.565 3.115-226.133 18.475-86.357 82.048-149.931 168.405-168.405 13.568-2.901 27.477-3.115 211.627-3.115s198.059 0.213 211.627 3.115c65.195 13.952 118.955 54.485 148.181 111.744 12.901 24.153 21.398 52.495 23.638 82.58l0.042 0.706 0.981 13.867 13.867 0.981c64.774 5.151 120.977 37.959 157.377 86.477l0.404 0.563c16.768 22.699 30.805 54.656 37.248 84.821 4.309 20.096 4.309 61.824 0 81.92-12.032 56.277-44.544 105.131-89.899 135.083-32.171 21.291-59.904 31.531-95.915 35.456-26.283 2.901-752.64 2.304-761.899-0.597zM724.949 393.813l-0.469-182.187-4.309-13.696c-13.327-41.423-45.452-73.351-86.064-86.146l-0.934-0.254-12.8-4.011h-387.413l-12.8 4.011c-41.546 13.049-73.67 44.977-86.737 85.467l-0.26 0.933-4.309 13.696-0.939 364.373h597.504l-0.469-182.187zM848.043 570.283c39.467-11.435 72.96-45.056 85.291-85.547 3.541-11.648 4.181-17.195 4.181-36.736s-0.64-25.088-4.181-36.736c-15.061-49.365-59.435-86.016-109.781-90.581l-12.885-1.152v256.896l12.203-1.195c6.699-0.64 18.048-2.901 25.173-4.949z" />
<glyph unicode="&#xe931;" glyph-name="columns" d="M191.957 872.832c-47.744-8.064-86.955-42.88-101.76-90.325l-4.011-12.8v-643.413l4.011-12.8c13.117-41.864 45.432-74.179 86.363-87.043l0.933-0.253 12.8-4.011h643.413l12.8 4.011c41.864 13.117 74.179 45.432 87.043 86.363l0.253 0.933 4.011 12.8v643.413l-4.011 12.8c-13.049 41.546-44.977 73.67-85.467 86.737l-0.933 0.26-13.696 4.309-316.587 0.256c-174.123 0.128-320.469-0.427-325.163-1.237zM469.333 447.957v-341.376l-268.8 0.939-7.851 4.608c-4.793 2.951-8.888 6.476-12.356 10.551l-0.060 0.073c-10.197 13.397-9.6-7.339-9.6 324.309 0 342.059-1.067 315.349 12.971 329.344 13.184 13.184 6.827 12.672 154.709 12.8l130.987 0.128v-341.376zM823.893 786.731c11.904-3.541 23.296-14.933 26.837-26.837 2.304-7.68 2.603-45.44 2.603-311.936 0-251.989-0.384-304.512-2.347-310.997-3.329-10.637-10.321-19.306-19.468-24.721l-0.202-0.111-7.851-4.608-268.8-0.939v682.752h130.261c111.616 0 131.499-0.384 138.965-2.603z" />
<glyph unicode="&#xe932;" glyph-name="command" d="M228.608 872.064c-48.128-7.509-94.507-38.955-118.997-80.725-15.115-24.93-24.060-55.058-24.060-87.276 0-71.241 43.737-132.266 105.825-157.688l1.136-0.412c26.752-10.795 41.131-12.629 98.304-12.629h50.517v-170.667h-47.36c-65.067-0.043-83.072-2.987-114.944-18.901-28.901-15.086-52.416-37-68.986-63.678l-0.433-0.748c-15.115-24.93-24.060-55.058-24.060-87.276 0-71.241 43.737-132.266 105.825-157.688l1.136-0.412c18.816-7.796 40.667-12.323 63.576-12.323 71.177 0 132.146 43.702 157.538 105.738l0.411 1.135c10.795 26.752 12.629 41.131 12.629 98.304v50.517h170.667v-50.517c0-44.288 0.427-52.608 3.541-67.797 11.454-57.317 50.552-103.496 102.504-124.648l1.134-0.408c18.816-7.796 40.667-12.323 63.576-12.323 71.177 0 132.146 43.702 157.538 105.738l0.411 1.135c7.839 18.764 12.393 40.567 12.393 63.433 0 11.446-1.141 22.626-3.316 33.432l0.181-1.079c-12.313 61.188-55.873 109.889-112.969 129.307l-1.207 0.357c-19.669 6.741-40.149 8.704-91.093 8.704h-47.36v170.667h50.517c43.648 0 52.736 0.469 67.115 3.371 58.027 11.861 103.936 49.749 125.739 103.808 7.818 18.775 12.358 40.585 12.358 63.455 0 22.831-4.525 44.604-12.726 64.473l0.411-1.124c-22.511 55.302-71.795 95.49-131.313 104.752l-0.954 0.122c-7.761 1.466-16.689 2.304-25.813 2.304s-18.052-0.838-26.712-2.442l0.898 0.138c-71.139-11.103-127.092-64.999-141.127-134.118l-0.185-1.093c-3.115-15.189-3.541-23.509-3.541-67.797v-50.517h-170.667v50.517c0 57.088-1.877 71.595-12.587 98.133-22.511 55.302-71.795 95.49-131.313 104.752l-0.954 0.122c-7.884 1.385-16.962 2.177-26.225 2.177-9.532 0-18.868-0.838-27.939-2.446l0.959 0.141zM278.315 786.219c21.291-5.547 42.368-22.443 53.291-42.581 8.192-15.147 9.685-27.051 9.685-78.464l0.043-46.507h-48.299c-37.291 0-50.475 0.597-58.027 2.56-29.227 7.595-53.717 31.829-61.227 60.459-1.84 6.615-2.898 14.212-2.898 22.055 0 47.152 38.224 85.376 85.376 85.376 7.844 0 15.44-1.058 22.655-3.038l-0.599 0.14zM790.315 786.219c36.434-10.454 62.645-43.475 62.645-82.618 0-13.507-3.121-26.286-8.682-37.654l0.224 0.507c-6.613-13.568-24.149-31.787-36.821-38.187-17.152-8.704-24.405-9.6-76.715-9.6h-48.299v47.019c0 53.547 1.451 64 11.307 80.384 20.48 34.219 58.453 50.048 96.341 40.149zM597.333 448v-85.333h-170.667v170.667h170.667v-85.333zM341.291 230.827c0-51.328-1.493-63.189-9.685-78.549-6.272-11.819-24.789-30.379-35.925-36.011-11.397-6.13-24.939-9.732-39.323-9.732-22.406 0-42.77 8.74-57.87 22.997l0.041-0.038c-17.030 15.582-27.67 37.906-27.67 62.715 0 31.045 16.662 58.199 41.531 73.006l0.39 0.215c17.195 10.411 26.027 11.691 80.341 11.819l48.213 0.085-0.043-46.507zM790.315 274.219c36.434-10.454 62.645-43.475 62.645-82.618 0-13.507-3.121-26.286-8.682-37.654l0.224 0.507c-6.613-13.568-24.149-31.787-36.821-38.187-11.53-6.011-25.181-9.537-39.655-9.537-14.275 0-27.749 3.43-39.643 9.51l0.493-0.229c-11.392 5.76-27.051 20.651-34.219 32.597-10.496 17.408-11.776 26.112-11.904 80.512l-0.085 48.213 48.213-0.085c39.851-0.085 50.176-0.64 59.435-3.029z" />
<glyph unicode="&#xe933;" glyph-name="compass" d="M481.28 916.352l-23.893-2.56c-80.555-8.533-159.104-40.107-228.693-91.819-25.984-19.328-71.509-64.853-91.051-90.965-106.581-142.805-124.8-327.040-48.171-486.955 23.296-48.555 50.304-86.229 91.349-127.232 41.003-41.045 78.677-68.053 127.232-91.349 159.872-76.629 344.235-58.325 487.125 48.341 25.984 19.371 71.637 65.024 91.008 91.008 126.891 170.027 126.891 396.331 0 566.357-19.371 25.941-64.981 71.552-90.88 90.795-68.053 50.603-139.733 80-222.592 91.264-18.048 2.475-78.891 4.523-91.435 3.115zM568.32 827.691c109.355-16.512 204.971-78.080 266.24-171.477 12.928-19.755 31.701-57.984 39.765-81.067 14.763-42.368 20.693-78.72 20.693-127.147 0-63.701-10.965-111.829-38.272-168.107-30.080-62.037-75.477-113.792-134.528-153.259-33.664-22.528-87.509-45.056-128.811-53.973-24.244-5.414-52.089-8.515-80.658-8.515-91.486 0-175.543 31.805-241.717 84.962l0.754-0.586c-64.555 51.712-112.981 127.573-132.395 207.317-7.936 32.555-10.411 54.272-10.411 92.16 0 63.701 10.965 111.829 38.272 168.107 45.622 92.339 124.633 162.383 220.876 195.211l2.698 0.799c30.080 9.941 54.272 14.848 93.013 18.859 13.739 1.408 67.029-0.64 84.48-3.285zM547.84 625.792c-127.066-39.601-174.792-56.168-222.371-73.047l78.627 24.321c-9.512-4.873-17.011-12.537-21.55-21.901l-0.125-0.285c-1.664-3.883-23.509-68.523-48.512-143.616-29.44-88.405-45.483-139.051-45.483-143.488 0-23.552 19.84-43.349 43.392-43.349 9.515 0 285.867 92.16 294.699 98.219 3.499 2.475 8.363 7.339 10.837 10.837 6.059 8.832 98.219 285.184 98.219 294.699 0 22.955-17.067 40.917-40.619 42.795-9.131 0.725-18.261-2.048-147.115-45.184zM624.213 558.507l-27.691-83.2c-14.805-44.587-27.776-81.92-28.843-82.987-1.92-1.92-166.784-57.344-167.765-56.405-0.64 0.683 53.461 163.328 55.381 166.613 1.152 1.92 162.219 57.429 168.235 57.984 0.811 0.085 1.109-0.853 0.683-2.005z" />
<glyph unicode="&#xe934;" glyph-name="copy" d="M149.291 915.499c-47.787-8.107-86.955-42.88-101.76-90.325l-4.011-12.8v-430.080l4.011-12.8c13.074-41.576 45.006-73.733 85.508-86.863l0.935-0.262c10.368-3.328 16.683-3.925 47.787-4.608 23.253-0.512 38.315-0.128 42.837 1.109 9.941 2.688 20.181 10.667 25.728 20.139 4.139 7.040 4.821 10.027 4.821 20.992 0 10.837-0.725 13.995-4.608 20.651-5.037 8.308-12.313 14.816-20.994 18.78l-0.296 0.121c-2.816 1.195-18.731 2.432-38.101 2.987-32.256 0.939-33.536 1.109-41.131 5.589-4.793 2.951-8.888 6.476-12.356 10.551l-0.060 0.073c-10.069 13.184-9.6 2.603-9.6 217.643 0 222.848-0.811 208.939 12.928 222.677s-0.085 12.928 221.739 12.928c220.075 0 207.787 0.683 220.971-12.075 11.563-11.264 12.544-15.061 13.611-52.907l0.939-33.408 5.163-8.405c7.549-12.6 21.13-20.904 36.651-20.904s29.102 8.304 36.543 20.711l0.107 0.193 5.163 8.405v39.381c0 36.523-0.299 40.32-4.011 52.181-13.049 41.546-44.977 73.67-85.467 86.737l-0.933 0.26-13.696 4.309-209.92 0.256c-115.456 0.128-213.803-0.427-218.496-1.237zM447.957 616.832c-47.787-8.107-86.955-42.88-101.76-90.325l-4.011-12.8v-430.080l4.011-12.8c13.117-41.864 45.432-74.179 86.363-87.043l0.933-0.253 12.8-4.011h430.080l12.8 4.011c41.864 13.117 74.179 45.432 87.043 86.363l0.253 0.933 4.011 12.8v430.080l-4.011 12.8c-13.049 41.546-44.977 73.67-85.467 86.737l-0.933 0.26-13.696 4.309-209.92 0.256c-115.456 0.128-213.803-0.427-218.496-1.237zM866.56 530.731c11.904-3.541 23.296-14.933 26.837-26.837 2.261-7.595 2.603-34.304 2.603-205.269 0-213.333 0.341-205.525-9.429-218.325-2.603-3.413-8.277-8.32-12.587-10.837l-7.851-4.608h-409.6l-7.851 4.608c-9.034 5.384-15.9 13.602-19.443 23.41l-0.099 0.312c-3.797 10.88-3.712 397.824 0.128 410.709 3.371 11.477 14.976 23.339 26.112 26.752 12.331 3.797 398.421 3.883 411.179 0.085z" />
<glyph unicode="&#xe935;" glyph-name="corner-down-left" d="M840.32 829.568c-10.333-3.519-18.737-10.43-24.080-19.381l-0.112-0.203-4.608-7.851-0.896-167.253-0.853-167.253-4.309-13.696c-12.843-40.875-44.16-72.32-86.101-86.4l-11.947-4.011-433.493-0.939 72.789 73.003c40.021 40.149 74.197 75.691 75.904 78.976 2.219 4.224 3.157 9.728 3.157 18.773 0.043 10.88-0.64 13.995-4.565 20.651-7.483 13.104-21.37 21.793-37.287 21.793-5.221 0-10.223-0.935-14.849-2.646l0.296 0.096c-7.637-2.517-18.859-13.184-120.789-114.773-122.24-121.771-120.533-119.851-120.533-138.453 0-18.56-1.579-16.768 119.68-137.643 61.355-61.141 114.133-112.469 117.291-114.048 19.413-9.771 44.629-1.92 55.979 17.365 4.139 7.040 4.821 9.984 4.779 20.992 0 9.045-0.939 14.549-3.157 18.773-1.707 3.285-35.84 38.784-75.861 78.891l-72.704 72.917 219.264 0.555c203.349 0.469 220.16 0.725 232.021 3.584 65.92 15.659 117.589 55.083 146.475 111.659 9.771 19.157 15.872 36.224 20.224 56.661 2.901 13.483 3.115 26.539 3.115 183.467v168.96l-4.608 7.851c-7.531 12.997-21.374 21.6-37.227 21.6-4.641 0-9.109-0.737-13.295-2.101l0.303 0.085z" />
<glyph unicode="&#xe936;" glyph-name="corner-down-right" d="M157.653 829.568c-10.333-3.519-18.737-10.43-24.080-19.381l-0.112-0.203-4.608-7.851v-168.96c0-156.928 0.213-169.984 3.115-183.467 18.347-85.675 79.659-147.627 166.699-168.32 11.861-2.859 28.672-3.115 232.021-3.584l219.264-0.555-72.704-72.917c-40.021-40.107-74.155-75.605-75.861-78.891-2.219-4.224-3.157-9.728-3.157-18.773-0.043-11.008 0.64-13.952 4.779-20.992 5.547-9.472 15.744-17.451 25.728-20.181 8.619-2.304 22.613-1.024 30.251 2.816 3.157 1.579 55.936 52.907 117.291 114.048 121.259 120.875 119.68 119.083 119.68 137.643 0 18.603 1.707 16.683-120.533 138.453-101.931 101.589-113.152 112.256-120.789 114.773-4.33 1.616-9.332 2.55-14.553 2.55-15.917 0-29.804-8.69-37.177-21.583l-0.11-0.21c-3.925-6.656-4.608-9.771-4.565-20.651 0-9.045 0.939-14.549 3.157-18.773 1.707-3.285 35.883-38.827 75.904-78.976l72.789-73.003-433.493 0.939-11.947 4.011c-41.941 14.080-73.259 45.525-86.101 86.4l-4.309 13.696-0.853 167.253-0.896 167.253-4.608 7.851c-7.531 12.997-21.374 21.6-37.227 21.6-4.641 0-9.109-0.737-13.295-2.101l0.303 0.085z" />
<glyph unicode="&#xe937;" glyph-name="corner-left-down" d="M529.067 830.123c-69.931-7.893-133.931-53.163-165.291-116.949-7.356-14.805-13.665-32.082-18.036-50.116l-0.353-1.724c-2.859-11.861-3.115-28.672-3.584-232.021l-0.555-219.179-73.771 73.472c-66.048 65.749-74.667 73.771-82.176 76.245-20.48 6.827-41.003-0.768-51.84-19.2-3.925-6.656-4.608-9.771-4.565-20.651 0-9.045 0.939-14.549 3.157-18.773 1.707-3.285 53.163-56.149 114.304-117.504 120.875-121.259 119.083-119.68 137.643-119.68s16.768-1.579 137.643 119.68c61.141 61.355 112.597 114.219 114.304 117.504 2.219 4.224 3.157 9.728 3.157 18.773 0.043 10.88-0.64 13.995-4.565 20.651-7.476 13.088-21.348 21.767-37.248 21.767-5.236 0-10.252-0.941-14.888-2.664l0.296 0.096c-7.509-2.475-16.128-10.496-82.261-76.331l-73.856-73.557 0.469 215.851 0.469 215.893 4.309 13.696c13.241 41.103 44.989 72.837 85.169 85.799l0.933 0.26 13.696 4.309 334.507 1.749 8.192 4.821c32.256 18.944 26.923 66.603-8.619 77.312-6.4 1.92-36.352 2.304-165.803 2.133-86.912-0.128-163.797-0.896-170.837-1.664z" />
<glyph unicode="&#xe938;" glyph-name="corner-left-up" d="M366.080 827.904c-6.784-3.243-31.104-26.752-119.723-115.627-61.141-61.355-112.597-114.219-114.304-117.504-2.219-4.224-3.157-9.728-3.157-18.773-0.043-11.008 0.64-13.952 4.779-20.992 5.547-9.472 15.744-17.451 25.728-20.181 8.661-2.304 22.656-1.024 30.251 2.816 3.157 1.579 38.571 35.584 78.677 75.605l72.917 72.704 0.555-219.264c0.597-241.152-0.085-225.109 10.965-257.621 24.363-71.381 82.389-122.795 159.232-141.013 11.733-2.773 26.923-3.072 179.669-3.584 110.891-0.384 169.045 0 173.397 1.195 9.515 2.56 19.797 10.667 25.259 20.011 4.139 7.040 4.821 10.027 4.821 20.992 0 10.837-0.725 13.995-4.608 20.651-5.091 8.3-12.349 14.83-20.992 18.903l-0.298 0.126c-3.712 1.621-43.477 2.347-172.075 2.987l-167.253 0.896-11.947 3.968c-41.856 13.995-73.173 45.44-86.144 86.4l-4.309 13.696-0.939 431.787 73.003-72.789c40.149-40.021 75.691-74.197 78.976-75.904 4.224-2.219 9.728-3.157 18.773-3.157 11.008-0.043 13.952 0.64 20.992 4.779 9.472 5.547 17.451 15.744 20.181 25.728 2.304 8.619 1.024 22.613-2.816 30.251-1.579 3.157-52.907 55.936-114.048 117.291-120.875 121.259-119.083 119.68-137.643 119.68-0.089 0.001-0.194 0.001-0.299 0.001-6.412 0-12.474-1.497-17.857-4.16l0.236 0.105z" />
<glyph unicode="&#xe939;" glyph-name="calendar" d="M328.32 914.901c-10.333-3.519-18.737-10.43-24.080-19.381l-0.112-0.203c-4.395-7.509-4.651-9.045-5.163-35.456l-0.597-27.563-54.016-0.683c-51.584-0.683-54.699-0.896-67.755-4.907-41.443-13.223-73.396-45.33-86.148-85.939l-0.252-0.93-4.011-12.8v-643.413l4.011-12.8c13.117-41.864 45.432-74.179 86.363-87.043l0.933-0.253 12.8-4.011h643.413l12.8 4.011c41.864 13.117 74.179 45.432 87.043 86.363l0.253 0.933 4.011 12.8v643.413l-4.011 12.8c-13.004 41.539-44.957 73.646-85.471 86.612l-0.929 0.257c-13.056 4.011-16.171 4.224-67.755 4.907l-54.016 0.683-0.597 27.563c-0.512 26.496-0.725 27.904-5.205 35.541-7.625 12.82-21.406 21.277-37.163 21.277s-29.538-8.457-37.054-21.079l-0.109-0.198c-4.48-7.637-4.693-9.045-5.205-35.669l-0.597-27.733h-255.403l-0.597 27.733c-0.512 26.539-0.768 28.075-5.163 35.584-7.531 12.997-21.374 21.6-37.227 21.6-4.641 0-9.109-0.737-13.295-2.101l0.303 0.085zM298.965 718.805c0.555-27.605 0.597-27.947 5.717-36.267 7.549-12.6 21.13-20.904 36.651-20.904s29.102 8.304 36.543 20.711l0.107 0.193c5.12 8.32 5.163 8.661 5.717 36.267l0.597 27.861h255.403l0.597-27.861c0.555-27.605 0.597-27.947 5.717-36.267 7.549-12.6 21.13-20.904 36.651-20.904s29.102 8.304 36.543 20.711l0.107 0.193c5.12 8.32 5.163 8.661 5.717 36.267l0.597 27.861h44.757c52.949 0 58.027-0.939 70.016-12.928 12.629-12.629 12.928-14.805 12.928-91.477v-66.261h-682.667v66.261c0 76.715 0.299 78.848 12.971 91.477 11.861 11.904 16.085 12.672 69.248 12.8l45.483 0.128 0.597-27.861zM853.333 296.363c0-210.901 0.341-203.264-9.429-216.064-2.603-3.413-8.277-8.32-12.587-10.837l-7.851-4.608h-622.933l-7.851 4.608c-4.793 2.951-8.888 6.476-12.356 10.551l-0.060 0.073c-10.069 13.184-9.6 2.816-9.6 215.381v195.2h682.667v-194.304z" />
</font>
</defs>
</svg>
